<?xml version="1.0" encoding="utf-8"?>
<!-- Generator: Adobe Illustrator 25.0.0, SVG Export Plug-In . SVG Version: 6.00 Build 0)  -->
<svg version="1.1" id="Layer_1" xmlns="http://www.w3.org/2000/svg" xmlns:xlink="http://www.w3.org/1999/xlink" x="0px" y="0px"
	 viewBox="0 0 173 60" style="enable-background:new 0 0 173 60;" xml:space="preserve">
<style type="text/css">
	.st0{fill:#33CC99;}
	.st1{fill:url(#Path_98_);}
	.st2{fill:url(#Path_99_);}
	.st3{fill:url(#Path_100_);}
	.st4{fill:url(#Path_101_);}
	.st5{fill:url(#Path_102_);}
	.st6{fill:url(#Path_103_);}
	.st7{fill:url(#Path_104_);}
	.st8{fill:url(#Path_105_);}
	.st9{fill:url(#Path_106_);}
	.st10{fill:url(#Path_107_);}
	.st11{fill:url(#Path_108_);}
	.st12{fill:url(#Path_109_);}
	.st13{fill:url(#Path_110_);}
	.st14{fill:url(#Path_111_);}
	.st15{fill:url(#Path_112_);}
	.st16{fill:url(#Path_113_);}
	.st17{fill:url(#Path_114_);}
	.st18{fill:url(#Path_115_);}
	.st19{fill:url(#Path_116_);}
	.st20{fill:url(#Path_117_);}
	.st21{fill:url(#Path_118_);}
	.st22{fill:url(#Path_119_);}
	.st23{fill:url(#Path_120_);}
	.st24{fill:url(#Path_121_);}
	.st25{fill:url(#Path_122_);}
	.st26{fill:url(#Path_123_);}
	.st27{fill:url(#Path_124_);}
	.st28{fill:url(#Path_125_);}
	.st29{fill:url(#Path_126_);}
	.st30{fill:url(#Path_127_);}
	.st31{fill:url(#Path_128_);}
	.st32{fill:url(#Path_129_);}
	.st33{fill:url(#Path_130_);}
	.st34{fill:url(#Path_131_);}
	.st35{fill:url(#Path_132_);}
	.st36{fill:url(#Path_133_);}
	.st37{fill:url(#Path_134_);}
	.st38{fill:url(#Path_135_);}
	.st39{fill:url(#Path_136_);}
	.st40{fill:url(#Path_137_);}
	.st41{fill:url(#Path_138_);}
	.st42{fill:url(#Path_139_);}
	.st43{fill:url(#Path_140_);}
	.st44{fill:url(#Path_141_);}
	.st45{fill:url(#Path_142_);}
	.st46{fill:url(#Path_143_);}
	.st47{fill:url(#Path_144_);}
	.st48{fill:url(#Path_145_);}
	.st49{fill:url(#Path_146_);}
	.st50{fill:url(#Path_147_);}
	.st51{fill:url(#Path_148_);}
	.st52{fill:url(#Path_149_);}
	.st53{fill:url(#Path_150_);}
	.st54{fill:url(#Path_151_);}
	.st55{fill:#FFFFFF;}
</style>
<g id="Symbols">
	<g id="sadaia">
		<polygon id="Path" class="st0" points="27.6,20.3 18.8,25.4 18.8,35.5 27.6,40.6 36.4,35.5 36.4,25.4 		"/>
		
			<linearGradient id="Path_98_" gradientUnits="userSpaceOnUse" x1="-178.7321" y1="367.8641" x2="-175.0642" y2="365.6114" gradientTransform="matrix(5.2687 0 0 -6.0844 984.3561 2249.05)">
			<stop  offset="0" style="stop-color:#99D633"/>
			<stop  offset="0.5" style="stop-color:#33CC99"/>
			<stop  offset="1" style="stop-color:#273470"/>
		</linearGradient>
		<polygon id="Path_1_" class="st1" points="54.8,16 54.8,22.1 49.5,19.1 		"/>
		
			<linearGradient id="Path_99_" gradientUnits="userSpaceOnUse" x1="-179.9036" y1="368.5367" x2="-176.2296" y2="366.2805" gradientTransform="matrix(5.2594 0 0 -6.075 982.041 2266.5798)">
			<stop  offset="0" style="stop-color:#99D633"/>
			<stop  offset="0.5" style="stop-color:#33CC99"/>
			<stop  offset="1" style="stop-color:#273470"/>
		</linearGradient>
		<polygon id="Path_2_" class="st2" points="54.5,37.6 54.5,43.6 49.2,40.6 		"/>
		
			<linearGradient id="Path_100_" gradientUnits="userSpaceOnUse" x1="-179.6007" y1="367.8976" x2="-175.9328" y2="365.6449" gradientTransform="matrix(5.2687 0 0 -6.0844 981.778 2265.512)">
			<stop  offset="0" style="stop-color:#99D633"/>
			<stop  offset="0.5" style="stop-color:#33CC99"/>
			<stop  offset="1" style="stop-color:#273470"/>
		</linearGradient>
		<polygon id="Path_3_" class="st3" points="52.2,35.5 46.9,38.6 46.9,32.5 		"/>
		
			<linearGradient id="Path_101_" gradientUnits="userSpaceOnUse" x1="-179.4659" y1="368.3142" x2="-175.7966" y2="366.0615" gradientTransform="matrix(5.2687 0 0 -6.0844 985.0686 2260.1313)">
			<stop  offset="0" style="stop-color:#99D633"/>
			<stop  offset="0.5" style="stop-color:#33CC99"/>
			<stop  offset="1" style="stop-color:#273470"/>
		</linearGradient>
		<polygon id="Path_4_" class="st4" points="55.5,27.1 55.5,33.2 50.2,30.1 		"/>
		
			<linearGradient id="Path_102_" gradientUnits="userSpaceOnUse" x1="-179.1043" y1="367.9984" x2="-175.425" y2="365.7423" gradientTransform="matrix(5.2688 0 0 -6.075 973.0038 2272.5911)">
			<stop  offset="0" style="stop-color:#99D633"/>
			<stop  offset="0.5" style="stop-color:#33CC99"/>
			<stop  offset="1" style="stop-color:#273470"/>
		</linearGradient>
		<polygon id="Path_5_" class="st5" points="43.4,43.6 43.4,49.6 38.1,46.6 		"/>
		
			<linearGradient id="Path_103_" gradientUnits="userSpaceOnUse" x1="-188.3781" y1="382.4218" x2="-185.6309" y2="380.7316" gradientTransform="matrix(7.0125 0 0 -8.1094 1354.0118 3129.175)">
			<stop  offset="0" style="stop-color:#99D633"/>
			<stop  offset="0.5" style="stop-color:#33CC99"/>
			<stop  offset="1" style="stop-color:#273470"/>
		</linearGradient>
		<polygon id="Path_6_" class="st6" points="44.3,39.6 37.3,35.5 44.3,31.5 		"/>
		
			<linearGradient id="Path_104_" gradientUnits="userSpaceOnUse" x1="-188.7886" y1="382.1211" x2="-186.0341" y2="380.429" gradientTransform="matrix(7.0125 0 0 -8.1 1354.0118 3130.2432)">
			<stop  offset="0" style="stop-color:#99D633"/>
			<stop  offset="0.5" style="stop-color:#33CC99"/>
			<stop  offset="1" style="stop-color:#273470"/>
		</linearGradient>
		<polygon id="Path_7_" class="st7" points="44.3,40.6 37.3,44.6 37.3,36.5 		"/>
		
			<linearGradient id="Path_105_" gradientUnits="userSpaceOnUse" x1="-188.3398" y1="381.8456" x2="-185.5842" y2="380.1523" gradientTransform="matrix(7.0125 0 0 -8.1 1354.0118 3120.1104)">
			<stop  offset="0" style="stop-color:#99D633"/>
			<stop  offset="0.5" style="stop-color:#33CC99"/>
			<stop  offset="1" style="stop-color:#273470"/>
		</linearGradient>
		<polygon id="Path_8_" class="st8" points="44.3,30.5 37.3,34.5 37.3,26.4 		"/>
		
			<linearGradient id="Path_106_" gradientUnits="userSpaceOnUse" x1="-179.7978" y1="367.9717" x2="-176.1237" y2="365.7155" gradientTransform="matrix(5.2594 0 0 -6.075 972.3745 2279.8752)">
			<stop  offset="0" style="stop-color:#99D633"/>
			<stop  offset="0.5" style="stop-color:#33CC99"/>
			<stop  offset="1" style="stop-color:#273470"/>
		</linearGradient>
		<polygon id="Path_9_" class="st9" points="44.8,53.9 39.6,56.9 39.6,50.8 		"/>
		
			<linearGradient id="Path_107_" gradientUnits="userSpaceOnUse" x1="-193.6492" y1="390.7996" x2="-191.4465" y2="389.4462" gradientTransform="matrix(8.775 0 0 -10.1344 1730.3436 3987.7749)">
			<stop  offset="0" style="stop-color:#99D633"/>
			<stop  offset="0.5" style="stop-color:#33CC99"/>
			<stop  offset="1" style="stop-color:#273470"/>
		</linearGradient>
		<polygon id="Path_10_" class="st10" points="36.4,35.5 27.6,30.5 36.4,25.4 		"/>
		
			<linearGradient id="Path_108_" gradientUnits="userSpaceOnUse" x1="-188.3306" y1="381.8928" x2="-185.5824" y2="380.2014" gradientTransform="matrix(7.0125 0 0 -8.1094 1345.2377 3140.4531)">
			<stop  offset="0" style="stop-color:#99D633"/>
			<stop  offset="0.5" style="stop-color:#33CC99"/>
			<stop  offset="1" style="stop-color:#273470"/>
		</linearGradient>
		<polygon id="Path_11_" class="st11" points="35.5,46.8 28.5,50.9 28.5,42.8 		"/>
		
			<linearGradient id="Path_109_" gradientUnits="userSpaceOnUse" x1="-178.9107" y1="367.3797" x2="-175.2314" y2="365.1236" gradientTransform="matrix(5.2687 0 0 -6.075 964.228 2282.7253)">
			<stop  offset="0" style="stop-color:#99D633"/>
			<stop  offset="0.5" style="stop-color:#33CC99"/>
			<stop  offset="1" style="stop-color:#273470"/>
		</linearGradient>
		<polygon id="Path_12_" class="st12" points="34.6,56.7 29.4,59.8 29.4,53.7 		"/>
		
			<linearGradient id="Path_110_" gradientUnits="userSpaceOnUse" x1="-181.5506" y1="369.9173" x2="-176.9451" y2="366.1766" gradientTransform="matrix(5.2687 0 0 -6.075 983.2498 2273.3298)">
			<stop  offset="0" style="stop-color:#99D633"/>
			<stop  offset="0.5" style="stop-color:#33CC99"/>
			<stop  offset="1" style="stop-color:#273470"/>
		</linearGradient>
		<polygon id="Path_13_" class="st13" points="53.7,47.3 48.4,50.4 48.4,44.3 		"/>
		
			<linearGradient id="Path_111_" gradientUnits="userSpaceOnUse" x1="-179.936" y1="368.6062" x2="-175.3292" y2="364.864" gradientTransform="matrix(5.2687 0 0 -6.075 981.778 2251.3848)">
			<stop  offset="0" style="stop-color:#99D633"/>
			<stop  offset="0.5" style="stop-color:#33CC99"/>
			<stop  offset="1" style="stop-color:#273470"/>
		</linearGradient>
		<polygon id="Path_14_" class="st14" points="52.2,25.4 46.9,28.4 46.9,22.4 		"/>
		
			<linearGradient id="Path_112_" gradientUnits="userSpaceOnUse" x1="-188.712" y1="382.8618" x2="-185.2631" y2="380.0551" gradientTransform="matrix(7.0125 0 0 -8.1 1354.0118 3115.0471)">
			<stop  offset="0" style="stop-color:#99D633"/>
			<stop  offset="0.5" style="stop-color:#33CC99"/>
			<stop  offset="1" style="stop-color:#273470"/>
		</linearGradient>
		<polygon id="Path_15_" class="st15" points="44.3,21.3 44.3,29.4 37.3,25.4 		"/>
		
			<linearGradient id="Path_113_" gradientUnits="userSpaceOnUse" x1="-179.7156" y1="368.9905" x2="-175.117" y2="365.2498" gradientTransform="matrix(5.2594 0 0 -6.075 962.1843 2277.2205)">
			<stop  offset="0" style="stop-color:#99D633"/>
			<stop  offset="0.5" style="stop-color:#33CC99"/>
			<stop  offset="1" style="stop-color:#273470"/>
		</linearGradient>
		<polygon id="Path_16_" class="st16" points="34.6,48.2 34.6,54.3 29.4,51.2 		"/>
		
			<linearGradient id="Path_114_" gradientUnits="userSpaceOnUse" x1="-188.9035" y1="383.0714" x2="-185.4636" y2="380.269" gradientTransform="matrix(7.0125 0 0 -8.1094 1345.2377 3135.3906)">
			<stop  offset="0" style="stop-color:#99D633"/>
			<stop  offset="0.5" style="stop-color:#33CC99"/>
			<stop  offset="1" style="stop-color:#273470"/>
		</linearGradient>
		<polygon id="Path_17_" class="st17" points="35.5,45.8 28.5,41.7 35.5,37.7 		"/>
		
			<linearGradient id="Path_115_" gradientUnits="userSpaceOnUse" x1="-194.7858" y1="391.2449" x2="-192.028" y2="389.0016" gradientTransform="matrix(8.775 0 0 -10.1344 1730.3436 3992.8374)">
			<stop  offset="0" style="stop-color:#99D633"/>
			<stop  offset="0.5" style="stop-color:#33CC99"/>
			<stop  offset="1" style="stop-color:#273470"/>
		</linearGradient>
		<polygon id="Path_18_" class="st18" points="27.6,30.5 36.4,35.5 27.6,40.6 		"/>
		
			<linearGradient id="Path_116_" gradientUnits="userSpaceOnUse" x1="-177.1139" y1="363.356" x2="-176.8409" y2="368.3868" gradientTransform="matrix(5.2687 0 0 -6.075 982.7249 2239.0374)">
			<stop  offset="0" style="stop-color:#66CCFF"/>
			<stop  offset="0.5" style="stop-color:#6258A6"/>
			<stop  offset="1" style="stop-color:#273470"/>
		</linearGradient>
		<polygon id="Path_19_" class="st19" points="53.1,13.1 47.9,16.1 47.9,10 		"/>
		
			<linearGradient id="Path_117_" gradientUnits="userSpaceOnUse" x1="-177.186" y1="362.0904" x2="-176.9151" y2="367.1135" gradientTransform="matrix(5.2687 0 0 -6.0844 974.0999 2234.1721)">
			<stop  offset="0" style="stop-color:#66CCFF"/>
			<stop  offset="0.5" style="stop-color:#6258A6"/>
			<stop  offset="1" style="stop-color:#273470"/>
		</linearGradient>
		<polygon id="Path_20_" class="st20" points="44.5,4.2 39.2,7.2 39.2,1.1 		"/>
		
			<linearGradient id="Path_118_" gradientUnits="userSpaceOnUse" x1="-187.3552" y1="380.1661" x2="-187.1513" y2="383.9349" gradientTransform="matrix(7.0125 0 0 -8.1094 1354.0118 3113.978)">
			<stop  offset="0" style="stop-color:#66CCFF"/>
			<stop  offset="0.5" style="stop-color:#6258A6"/>
			<stop  offset="1" style="stop-color:#273470"/>
		</linearGradient>
		<polygon id="Path_21_" class="st21" points="44.3,20.3 37.3,24.4 37.3,16.3 		"/>
		
			<linearGradient id="Path_119_" gradientUnits="userSpaceOnUse" x1="-177.1206" y1="362.7341" x2="-176.8475" y2="367.7634" gradientTransform="matrix(5.2687 0 0 -6.075 964.228 2234.0969)">
			<stop  offset="0" style="stop-color:#66CCFF"/>
			<stop  offset="0.5" style="stop-color:#6258A6"/>
			<stop  offset="1" style="stop-color:#273470"/>
		</linearGradient>
		<polygon id="Path_22_" class="st22" points="34.6,11.1 29.4,8.1 34.6,5.1 		"/>
		
			<linearGradient id="Path_120_" gradientUnits="userSpaceOnUse" x1="-187.3323" y1="380.0909" x2="-187.1283" y2="383.8597" gradientTransform="matrix(7.0125 0 0 -8.1094 1345.2377 3112.8345)">
			<stop  offset="0" style="stop-color:#66CCFF"/>
			<stop  offset="0.5" style="stop-color:#6258A6"/>
			<stop  offset="1" style="stop-color:#273470"/>
		</linearGradient>
		<polygon id="Path_23_" class="st23" points="35.5,15.1 35.5,23.2 28.5,19.2 		"/>
		
			<linearGradient id="Path_121_" gradientUnits="userSpaceOnUse" x1="-193.5539" y1="389.9951" x2="-193.3902" y2="393.0127" gradientTransform="matrix(8.775 0 0 -10.125 1721.5687 3978.7095)">
			<stop  offset="0" style="stop-color:#66CCFF"/>
			<stop  offset="0.5" style="stop-color:#6258A6"/>
			<stop  offset="1" style="stop-color:#273470"/>
		</linearGradient>
		<polygon id="Path_24_" class="st24" points="27.6,20.3 27.6,30.5 18.8,25.4 		"/>
		
			<linearGradient id="Path_122_" gradientUnits="userSpaceOnUse" x1="-187.4041" y1="379.536" x2="-187.1999" y2="383.3036" gradientTransform="matrix(7.0219 0 0 -8.1094 1338.5157 3107.7629)">
			<stop  offset="0" style="stop-color:#66CCFF"/>
			<stop  offset="0.5" style="stop-color:#6258A6"/>
			<stop  offset="1" style="stop-color:#273470"/>
		</linearGradient>
		<polygon id="Path_25_" class="st25" points="26.7,18.2 19.7,14.1 26.7,10.1 		"/>
		
			<linearGradient id="Path_123_" gradientUnits="userSpaceOnUse" x1="-177.1608" y1="361.9918" x2="-176.8878" y2="367.0226" gradientTransform="matrix(5.2688 0 0 -6.075 955.4534 2229.0249)">
			<stop  offset="0" style="stop-color:#66CCFF"/>
			<stop  offset="0.5" style="stop-color:#6258A6"/>
			<stop  offset="1" style="stop-color:#273470"/>
		</linearGradient>
		<polygon id="Path_26_" class="st26" points="25.9,6.1 20.6,3 25.9,0 		"/>
		
			<linearGradient id="Path_124_" gradientUnits="userSpaceOnUse" x1="-187.3174" y1="380.3661" x2="-187.1134" y2="384.1349" gradientTransform="matrix(7.0125 0 0 -8.1094 1327.6875 3113.978)">
			<stop  offset="0" style="stop-color:#66CCFF"/>
			<stop  offset="0.5" style="stop-color:#6258A6"/>
			<stop  offset="1" style="stop-color:#273470"/>
		</linearGradient>
		<polygon id="Path_27_" class="st27" points="18,24.4 10.9,20.3 18,16.3 		"/>
		
			<linearGradient id="Path_125_" gradientUnits="userSpaceOnUse" x1="-177.0378" y1="362.9594" x2="-176.7674" y2="367.981" gradientTransform="matrix(5.2594 0 0 -6.0844 942.6843 2237.6501)">
			<stop  offset="0" style="stop-color:#66CCFF"/>
			<stop  offset="0.5" style="stop-color:#6258A6"/>
			<stop  offset="1" style="stop-color:#273470"/>
		</linearGradient>
		<polygon id="Path_28_" class="st28" points="15.1,4.6 15.1,10.7 9.9,7.7 		"/>
		
			<linearGradient id="Path_126_" gradientUnits="userSpaceOnUse" x1="-176.9342" y1="363.9671" x2="-176.9342" y2="368.9363" gradientTransform="matrix(5.2688 0 0 -6.0844 973.0038 2244.3059)">
			<stop  offset="0" style="stop-color:#66CCFF"/>
			<stop  offset="0.5" style="stop-color:#6258A6"/>
			<stop  offset="1" style="stop-color:#273470"/>
		</linearGradient>
		<polygon id="Path_29_" class="st29" points="43.4,17.4 38.1,14.3 43.4,11.3 		"/>
		
			<linearGradient id="Path_127_" gradientUnits="userSpaceOnUse" x1="-176.9342" y1="362.0134" x2="-176.9342" y2="366.9902" gradientTransform="matrix(5.2687 0 0 -6.075 964.228 2229.0249)">
			<stop  offset="0" style="stop-color:#66CCFF"/>
			<stop  offset="0.5" style="stop-color:#6258A6"/>
			<stop  offset="1" style="stop-color:#273470"/>
		</linearGradient>
		<polygon id="Path_30_" class="st30" points="34.6,3 29.4,6.1 29.4,0 		"/>
		
			<linearGradient id="Path_128_" gradientUnits="userSpaceOnUse" x1="-187.2701" y1="379.5031" x2="-187.2701" y2="383.2357" gradientTransform="matrix(7.0125 0 0 -8.1 1345.2377 3103.7688)">
			<stop  offset="0" style="stop-color:#66CCFF"/>
			<stop  offset="0.5" style="stop-color:#6258A6"/>
			<stop  offset="1" style="stop-color:#273470"/>
		</linearGradient>
		<polygon id="Path_31_" class="st31" points="35.5,14.1 28.5,18.2 28.5,10.1 		"/>
		
			<linearGradient id="Path_129_" gradientUnits="userSpaceOnUse" x1="-193.5427" y1="390.0164" x2="-193.5427" y2="393.0025" gradientTransform="matrix(8.775 0 0 -10.125 1730.3436 3978.7095)">
			<stop  offset="0" style="stop-color:#66CCFF"/>
			<stop  offset="0.5" style="stop-color:#6258A6"/>
			<stop  offset="1" style="stop-color:#273470"/>
		</linearGradient>
		<polygon id="Path_32_" class="st32" points="36.4,25.4 27.6,30.5 27.6,20.3 		"/>
		
			<linearGradient id="Path_130_" gradientUnits="userSpaceOnUse" x1="-176.9342" y1="363.2275" x2="-176.9342" y2="368.1967" gradientTransform="matrix(5.2688 0 0 -6.0844 955.4534 2239.8064)">
			<stop  offset="0" style="stop-color:#66CCFF"/>
			<stop  offset="0.5" style="stop-color:#6258A6"/>
			<stop  offset="1" style="stop-color:#273470"/>
		</linearGradient>
		<polygon id="Path_33_" class="st33" points="25.9,9.8 20.6,12.9 20.6,6.8 		"/>
		
			<linearGradient id="Path_131_" gradientUnits="userSpaceOnUse" x1="-187.2701" y1="380.1823" x2="-187.2701" y2="383.9106" gradientTransform="matrix(7.0125 0 0 -8.1094 1336.4623 3112.8345)">
			<stop  offset="0" style="stop-color:#66CCFF"/>
			<stop  offset="0.5" style="stop-color:#6258A6"/>
			<stop  offset="1" style="stop-color:#273470"/>
		</linearGradient>
		<polygon id="Path_34_" class="st34" points="26.7,19.2 19.7,23.2 19.7,15.1 		"/>
		
			<linearGradient id="Path_132_" gradientUnits="userSpaceOnUse" x1="-176.9342" y1="363.8698" x2="-176.9342" y2="368.8467" gradientTransform="matrix(5.2688 0 0 -6.075 946.6783 2240.303)">
			<stop  offset="0" style="stop-color:#66CCFF"/>
			<stop  offset="0.5" style="stop-color:#6258A6"/>
			<stop  offset="1" style="stop-color:#273470"/>
		</linearGradient>
		<polygon id="Path_35_" class="st35" points="17.1,14.3 11.8,17.4 11.8,11.3 		"/>
		
			<linearGradient id="Path_133_" gradientUnits="userSpaceOnUse" x1="-176.9342" y1="364.2183" x2="-176.9342" y2="369.1844" gradientTransform="matrix(5.2687 0 0 -6.0844 935.3812 2245.8252)">
			<stop  offset="0" style="stop-color:#66CCFF"/>
			<stop  offset="0.5" style="stop-color:#6258A6"/>
			<stop  offset="1" style="stop-color:#273470"/>
		</linearGradient>
		<polygon id="Path_36_" class="st36" points="5.8,18.9 0.5,15.8 5.8,12.8 		"/>
		
			<linearGradient id="Path_134_" gradientUnits="userSpaceOnUse" x1="-173.5368" y1="368.2905" x2="-179.0149" y2="364.8676" gradientTransform="matrix(5.2688 0 0 -6.075 955.4534 2282.7253)">
			<stop  offset="0" style="stop-color:#FDBD4D"/>
			<stop  offset="0.5" style="stop-color:#FF6633"/>
			<stop  offset="1" style="stop-color:#273470"/>
		</linearGradient>
		<polygon id="Path_37_" class="st37" points="25.9,59.8 20.6,56.7 25.9,53.7 		"/>
		
			<linearGradient id="Path_135_" gradientUnits="userSpaceOnUse" x1="-192.2319" y1="391.0545" x2="-195.5104" y2="389.0027" gradientTransform="matrix(8.775 0 0 -10.1344 1721.5687 3992.8374)">
			<stop  offset="0" style="stop-color:#FDBD4D"/>
			<stop  offset="0.5" style="stop-color:#FF6633"/>
			<stop  offset="1" style="stop-color:#273470"/>
		</linearGradient>
		<polygon id="Path_38_" class="st38" points="27.6,30.5 27.6,40.6 18.8,35.5 		"/>
		
			<linearGradient id="Path_136_" gradientUnits="userSpaceOnUse" x1="-172.7333" y1="368.8894" x2="-178.1932" y2="365.4718" gradientTransform="matrix(5.2688 0 0 -6.0844 946.6783 2284.1885)">
			<stop  offset="0" style="stop-color:#FDBD4D"/>
			<stop  offset="0.5" style="stop-color:#FF6633"/>
			<stop  offset="1" style="stop-color:#273470"/>
		</linearGradient>
		<polygon id="Path_39_" class="st39" points="17.1,51.2 17.1,57.2 11.8,54.2 		"/>
		
			<linearGradient id="Path_137_" gradientUnits="userSpaceOnUse" x1="-185.1185" y1="383.0891" x2="-189.2083" y2="380.5249" gradientTransform="matrix(7.0125 0 0 -8.1094 1327.6875 3129.175)">
			<stop  offset="0" style="stop-color:#FDBD4D"/>
			<stop  offset="0.5" style="stop-color:#FF6633"/>
			<stop  offset="1" style="stop-color:#273470"/>
		</linearGradient>
		<polygon id="Path_40_" class="st40" points="18,35.5 10.9,39.6 10.9,31.5 		"/>
		
			<linearGradient id="Path_138_" gradientUnits="userSpaceOnUse" x1="-185.5665" y1="382.7549" x2="-189.6668" y2="380.1877" gradientTransform="matrix(7.0125 0 0 -8.1 1327.6875 3115.0471)">
			<stop  offset="0" style="stop-color:#FDBD4D"/>
			<stop  offset="0.5" style="stop-color:#FF6633"/>
			<stop  offset="1" style="stop-color:#273470"/>
		</linearGradient>
		<polygon id="Path_41_" class="st41" points="18,25.4 10.9,29.4 10.9,21.3 		"/>
		
			<linearGradient id="Path_139_" gradientUnits="userSpaceOnUse" x1="-171.9846" y1="369.2617" x2="-177.4627" y2="365.8373" gradientTransform="matrix(5.2688 0 0 -6.075 936.9563 2274.5486)">
			<stop  offset="0" style="stop-color:#FDBD4D"/>
			<stop  offset="0.5" style="stop-color:#FF6633"/>
			<stop  offset="1" style="stop-color:#273470"/>
		</linearGradient>
		<polygon id="Path_42_" class="st42" points="7.4,45.5 7.4,51.6 2.1,48.6 		"/>
		
			<linearGradient id="Path_140_" gradientUnits="userSpaceOnUse" x1="-173.4979" y1="368.4102" x2="-178.9591" y2="364.9927" gradientTransform="matrix(5.2688 0 0 -6.0844 937.9031 2255.1721)">
			<stop  offset="0" style="stop-color:#FDBD4D"/>
			<stop  offset="0.5" style="stop-color:#FF6633"/>
			<stop  offset="1" style="stop-color:#273470"/>
		</linearGradient>
		<polygon id="Path_43_" class="st43" points="8.3,22.1 8.3,28.2 3,25.2 		"/>
		
			<linearGradient id="Path_141_" gradientUnits="userSpaceOnUse" x1="-173.0049" y1="369.1234" x2="-178.4817" y2="365.7005" gradientTransform="matrix(5.2688 0 0 -6.075 934.8563 2256.7097)">
			<stop  offset="0" style="stop-color:#FDBD4D"/>
			<stop  offset="0.5" style="stop-color:#FF6633"/>
			<stop  offset="1" style="stop-color:#273470"/>
		</linearGradient>
		<polygon id="Path_44_" class="st44" points="5.3,30.7 0,33.8 0,27.7 		"/>
		
			<linearGradient id="Path_142_" gradientUnits="userSpaceOnUse" x1="-186.0864" y1="382.0366" x2="-188.9776" y2="380.091" gradientTransform="matrix(7.0125 0 0 -8.1094 1336.4623 3140.4531)">
			<stop  offset="0" style="stop-color:#FDBD4D"/>
			<stop  offset="0.5" style="stop-color:#FF6633"/>
			<stop  offset="1" style="stop-color:#273470"/>
		</linearGradient>
		<polygon id="Path_45_" class="st45" points="26.7,50.9 19.7,46.8 26.7,42.8 		"/>
		
			<linearGradient id="Path_143_" gradientUnits="userSpaceOnUse" x1="-193.3703" y1="390.8164" x2="-195.691" y2="389.2581" gradientTransform="matrix(8.775 0 0 -10.125 1721.5687 3983.771)">
			<stop  offset="0" style="stop-color:#FDBD4D"/>
			<stop  offset="0.5" style="stop-color:#FF6633"/>
			<stop  offset="1" style="stop-color:#273470"/>
		</linearGradient>
		<polygon id="Path_46_" class="st46" points="27.6,30.5 18.8,35.5 18.8,25.4 		"/>
		
			<linearGradient id="Path_144_" gradientUnits="userSpaceOnUse" x1="-175.273" y1="367.8763" x2="-179.1317" y2="365.2831" gradientTransform="matrix(5.2688 0 0 -6.0844 955.4534 2281.6572)">
			<stop  offset="0" style="stop-color:#FDBD4D"/>
			<stop  offset="0.5" style="stop-color:#FF6633"/>
			<stop  offset="1" style="stop-color:#273470"/>
		</linearGradient>
		<polygon id="Path_47_" class="st47" points="25.9,51.7 20.6,54.7 20.6,48.6 		"/>
		
			<linearGradient id="Path_145_" gradientUnits="userSpaceOnUse" x1="-186.5092" y1="382.2527" x2="-189.4003" y2="380.307" gradientTransform="matrix(7.0125 0 0 -8.1094 1336.4623 3135.3906)">
			<stop  offset="0" style="stop-color:#FDBD4D"/>
			<stop  offset="0.5" style="stop-color:#FF6633"/>
			<stop  offset="1" style="stop-color:#273470"/>
		</linearGradient>
		<polygon id="Path_48_" class="st48" points="26.7,41.7 19.7,45.8 19.7,37.7 		"/>
		
			<linearGradient id="Path_146_" gradientUnits="userSpaceOnUse" x1="-174.6468" y1="368.2016" x2="-178.5175" y2="365.6059" gradientTransform="matrix(5.2688 0 0 -6.075 946.6783 2272.5911)">
			<stop  offset="0" style="stop-color:#FDBD4D"/>
			<stop  offset="0.5" style="stop-color:#FF6633"/>
			<stop  offset="1" style="stop-color:#273470"/>
		</linearGradient>
		<polygon id="Path_49_" class="st49" points="17.1,46.6 11.8,49.6 11.8,43.6 		"/>
		
			<linearGradient id="Path_147_" gradientUnits="userSpaceOnUse" x1="-185.672" y1="382.2625" x2="-188.5698" y2="380.3146" gradientTransform="matrix(7.0125 0 0 -8.1 1327.6875 3130.2432)">
			<stop  offset="0" style="stop-color:#FDBD4D"/>
			<stop  offset="0.5" style="stop-color:#FF6633"/>
			<stop  offset="1" style="stop-color:#273470"/>
		</linearGradient>
		<polygon id="Path_50_" class="st50" points="18,36.5 18,44.6 10.9,40.6 		"/>
		
			<linearGradient id="Path_148_" gradientUnits="userSpaceOnUse" x1="-186.1426" y1="381.9461" x2="-189.0405" y2="379.9982" gradientTransform="matrix(7.0125 0 0 -8.1 1327.6875 3120.1104)">
			<stop  offset="0" style="stop-color:#FDBD4D"/>
			<stop  offset="0.5" style="stop-color:#FF6633"/>
			<stop  offset="1" style="stop-color:#273470"/>
		</linearGradient>
		<polygon id="Path_51_" class="st51" points="18,26.4 18,34.5 10.9,30.5 		"/>
		
			<linearGradient id="Path_149_" gradientUnits="userSpaceOnUse" x1="-174.2091" y1="367.9962" x2="-178.0797" y2="365.399" gradientTransform="matrix(5.2688 0 0 -6.075 937.9031 2261.5173)">
			<stop  offset="0" style="stop-color:#FDBD4D"/>
			<stop  offset="0.5" style="stop-color:#FF6633"/>
			<stop  offset="1" style="stop-color:#273470"/>
		</linearGradient>
		<polygon id="Path_52_" class="st52" points="8.3,38.6 3,35.5 8.3,32.5 		"/>
		
			<linearGradient id="Path_150_" gradientUnits="userSpaceOnUse" x1="-175.0436" y1="368.0304" x2="-178.9023" y2="365.4372" gradientTransform="matrix(5.2687 0 0 -6.0844 935.0624 2250.3157)">
			<stop  offset="0" style="stop-color:#FDBD4D"/>
			<stop  offset="0.5" style="stop-color:#FF6633"/>
			<stop  offset="1" style="stop-color:#273470"/>
		</linearGradient>
		<polygon id="Path_53_" class="st53" points="5.5,20.3 0.2,23.4 0.2,17.3 		"/>
		
			<linearGradient id="Path_151_" gradientUnits="userSpaceOnUse" x1="-173.8016" y1="368.8659" x2="-177.6603" y2="366.2726" gradientTransform="matrix(5.2687 0 0 -6.0844 935.3812 2270.9495)">
			<stop  offset="0" style="stop-color:#FDBD4D"/>
			<stop  offset="0.5" style="stop-color:#FF6633"/>
			<stop  offset="1" style="stop-color:#273470"/>
		</linearGradient>
		<polygon id="Path_54_" class="st54" points="5.8,41 0.5,44 0.5,37.9 		"/>
		<path id="Path_55_" class="st55" d="M71.1,53.6c-0.2-0.2-0.4-0.3-0.7-0.3c-0.3-0.1-0.5-0.2-0.8-0.2l-0.8-0.2
			c-0.2,0-0.5-0.1-0.7-0.2c-0.2-0.1-0.4-0.2-0.5-0.3c-0.1-0.1-0.2-0.3-0.2-0.5c0-0.2,0-0.4,0.1-0.5c0.1-0.1,0.2-0.3,0.3-0.4
			c0.1-0.1,0.3-0.2,0.5-0.2c0.2,0,0.4-0.1,0.6-0.1c0.4,0,0.8,0.1,1.1,0.3c0.3,0.3,0.5,0.6,0.5,1h0.8c0-0.3-0.1-0.6-0.2-0.9
			c-0.1-0.3-0.3-0.5-0.5-0.7c-0.2-0.2-0.5-0.3-0.8-0.4C69.7,50,69.4,50,69.1,50c-0.3,0-0.6,0-0.9,0.1c-0.3,0.1-0.5,0.2-0.8,0.4
			c-0.5,0.3-0.8,0.9-0.8,1.5c0,0.3,0.1,0.5,0.2,0.8c0.1,0.2,0.3,0.4,0.5,0.5c0.2,0.1,0.4,0.2,0.7,0.3c0.3,0.1,0.5,0.1,0.8,0.2
			l0.8,0.2c0.2,0,0.5,0.1,0.7,0.2c0.2,0.1,0.3,0.2,0.5,0.4c0.1,0.2,0.2,0.4,0.2,0.6c0,0.2,0,0.4-0.2,0.6c-0.1,0.2-0.2,0.3-0.4,0.4
			c-0.2,0.1-0.4,0.2-0.6,0.2c-0.2,0-0.4,0.1-0.6,0.1c-0.2,0-0.5,0-0.7-0.1c-0.2-0.1-0.4-0.2-0.6-0.3c-0.2-0.1-0.3-0.3-0.4-0.5
			c-0.1-0.2-0.2-0.5-0.2-0.7h-0.8c0,0.4,0.1,0.7,0.2,1c0.1,0.3,0.3,0.5,0.6,0.7c0.3,0.2,0.6,0.3,0.9,0.4c0.3,0.1,0.7,0.1,1.1,0.1
			c0.3,0,0.6,0,0.9-0.1c0.3-0.1,0.6-0.2,0.8-0.4c0.2-0.2,0.5-0.4,0.6-0.6c0.2-0.3,0.3-0.6,0.2-0.9c0-0.3-0.1-0.6-0.2-0.8
			C71.5,53.9,71.3,53.8,71.1,53.6L71.1,53.6z"/>
		<path id="Shape" class="st55" d="M76.6,56.1c0-0.1,0-0.3,0-0.4v-2.5c0-0.2,0-0.5-0.2-0.7c-0.1-0.2-0.2-0.3-0.4-0.4
			c-0.2-0.1-0.4-0.2-0.6-0.2c-0.2,0-0.4,0-0.7,0c-0.3,0-0.5,0-0.8,0.1c-0.2,0.1-0.5,0.1-0.6,0.3c-0.2,0.1-0.3,0.3-0.4,0.5
			c-0.1,0.2-0.2,0.5-0.2,0.8h0.8c0-0.3,0.1-0.6,0.4-0.7c0.3-0.1,0.5-0.2,0.8-0.2c0.1,0,0.3,0,0.4,0c0.1,0,0.2,0.1,0.4,0.1
			c0.1,0.1,0.2,0.1,0.3,0.3c0.1,0.1,0.1,0.3,0.1,0.4c0,0.1,0,0.2-0.1,0.3c-0.1,0.1-0.2,0.1-0.4,0.2C75.1,54,75,54,74.8,54
			c-0.2,0-0.4,0.1-0.6,0.1c-0.2,0-0.4,0.1-0.6,0.1c-0.2,0.1-0.4,0.1-0.5,0.3c-0.2,0.1-0.3,0.3-0.4,0.4c-0.1,0.2-0.2,0.4-0.1,0.7
			c0,0.2,0,0.4,0.1,0.6c0.1,0.2,0.2,0.3,0.3,0.4c0.1,0.1,0.3,0.2,0.5,0.2c0.2,0,0.4,0.1,0.6,0.1c0.3,0,0.6-0.1,0.9-0.2
			c0.3-0.1,0.6-0.3,0.8-0.6c0,0.2,0.1,0.4,0.2,0.6c0.1,0.1,0.3,0.2,0.5,0.2c0.2,0,0.4,0,0.6-0.1v-0.6c-0.1,0-0.2,0-0.2,0
			C76.7,56.2,76.6,56.2,76.6,56.1z M75.8,55.2c0,0.1,0,0.2-0.1,0.4c-0.1,0.1-0.1,0.3-0.3,0.4c-0.1,0.1-0.3,0.2-0.5,0.3
			c-0.2,0.1-0.4,0.1-0.7,0.1c-0.1,0-0.2,0-0.4,0c-0.1,0-0.2-0.1-0.3-0.1c-0.2-0.1-0.3-0.3-0.3-0.6c0-0.1,0-0.3,0.1-0.4
			c0.1-0.1,0.1-0.2,0.2-0.3c0.1-0.1,0.2-0.1,0.3-0.2c0.1,0,0.2-0.1,0.4-0.1l0.4-0.1c0.1,0,0.3,0,0.4-0.1l0.4-0.1
			c0.1,0,0.2-0.1,0.3-0.1V55.2z"/>
		<path id="Path_56_" class="st55" d="M81,54.7c0,0.2,0,0.4-0.1,0.6c-0.1,0.2-0.1,0.3-0.3,0.5c-0.1,0.1-0.3,0.2-0.4,0.3
			c-0.2,0.1-0.4,0.1-0.6,0.1c-0.3,0-0.5-0.1-0.7-0.3c-0.2-0.2-0.3-0.4-0.3-0.7V52h-0.8v3.2c0,0.2,0,0.5,0.1,0.7
			c0,0.2,0.1,0.4,0.3,0.6c0.1,0.2,0.3,0.3,0.5,0.4c0.3,0.1,0.5,0.1,0.8,0.1c0.3,0,0.6-0.1,0.9-0.2c0.3-0.2,0.5-0.4,0.7-0.7l0,0v0.8
			h0.8V52H81L81,54.7z"/>
		<path id="Shape_1_" class="st55" d="M86.6,52.6L86.6,52.6c-0.1-0.1-0.2-0.3-0.3-0.4c-0.1-0.1-0.3-0.2-0.4-0.2
			c-0.1-0.1-0.3-0.1-0.4-0.1c-0.1,0-0.3,0-0.4,0c-0.3,0-0.6,0.1-0.9,0.2c-0.3,0.1-0.5,0.3-0.7,0.5c-0.2,0.2-0.3,0.5-0.4,0.8
			c-0.1,0.3-0.1,0.6-0.1,0.9c0,0.3,0,0.6,0.1,0.9c0.1,0.3,0.2,0.6,0.4,0.8c0.2,0.2,0.4,0.4,0.7,0.6c0.3,0.1,0.6,0.2,1,0.2
			c0.3,0,0.6-0.1,0.9-0.2c0.3-0.1,0.5-0.3,0.6-0.6l0,0v0.7h0.8v-6.7h-0.8L86.6,52.6z M86.6,55.1c-0.1,0.2-0.1,0.4-0.3,0.6
			c-0.1,0.2-0.3,0.3-0.5,0.4c-0.2,0.1-0.4,0.2-0.7,0.2c-0.2,0-0.5,0-0.7-0.1c-0.2-0.1-0.3-0.2-0.5-0.4c-0.1-0.2-0.2-0.4-0.3-0.6
			c-0.1-0.2-0.1-0.4-0.1-0.7c0-0.2,0-0.5,0.1-0.7c0-0.2,0.1-0.4,0.2-0.6c0.1-0.2,0.3-0.3,0.4-0.4c0.2-0.1,0.5-0.2,0.7-0.2
			c0.2,0,0.5,0,0.7,0.2c0.2,0.1,0.4,0.2,0.5,0.4c0.1,0.2,0.2,0.4,0.3,0.6c0.1,0.2,0.1,0.5,0.1,0.7C86.6,54.6,86.6,54.9,86.6,55.1
			L86.6,55.1z"/>
		<rect id="Rectangle" x="88.6" y="52" class="st55" width="1" height="4.8"/>
		<path id="Shape_2_" class="st55" d="M95.7,50.1h-2.3v6.7h2.3c0.5,0,1-0.1,1.4-0.2c0.4-0.1,0.7-0.4,1-0.7c0.3-0.3,0.5-0.7,0.6-1.1
			c0.1-0.5,0.2-1,0.2-1.5c0.1-0.9-0.2-1.8-0.8-2.4C97.4,50.4,96.6,50.1,95.7,50.1z M97.9,54.5c-0.1,0.3-0.2,0.5-0.3,0.7
			c-0.1,0.2-0.3,0.3-0.4,0.5c-0.2,0.1-0.3,0.2-0.5,0.3c-0.2,0.1-0.3,0.1-0.5,0.1h-0.4h-1.5v-5.2h1.5c0.4,0,0.7,0.1,1,0.2
			c0.3,0.1,0.5,0.3,0.7,0.5c0.2,0.2,0.3,0.5,0.4,0.8c0.1,0.4,0.1,0.7,0.1,1.1C98,53.8,98,54.2,97.9,54.5L97.9,54.5z"/>
		<path id="Shape_3_" class="st55" d="M103.7,56.1c0-0.1,0-0.3,0-0.4v-2.5c0-0.2,0-0.5-0.2-0.7c-0.1-0.2-0.3-0.3-0.4-0.4
			c-0.2-0.1-0.4-0.2-0.6-0.2c-0.2,0-0.4,0-0.6,0c-0.3,0-0.5,0-0.8,0.1c-0.2,0.1-0.5,0.1-0.7,0.3c-0.2,0.1-0.3,0.3-0.5,0.5
			c-0.1,0.2-0.2,0.5-0.2,0.8h0.8c0-0.3,0.1-0.6,0.4-0.7c0.3-0.1,0.5-0.2,0.8-0.2h0.4c0.1,0,0.2,0.1,0.3,0.1c0.1,0.1,0.2,0.1,0.3,0.3
			c0.1,0.1,0.1,0.3,0.1,0.4c0,0.1,0,0.2-0.1,0.3c-0.1,0.1-0.2,0.1-0.4,0.2c-0.2,0-0.3,0.1-0.5,0.1c-0.2,0-0.4,0.1-0.6,0.1
			c-0.2,0-0.4,0.1-0.6,0.1c-0.2,0.1-0.4,0.1-0.5,0.3c-0.2,0.1-0.3,0.3-0.4,0.4c-0.1,0.2-0.2,0.4-0.1,0.7c0,0.2,0,0.4,0.1,0.6
			c0.1,0.2,0.2,0.3,0.3,0.4c0.2,0.1,0.3,0.2,0.5,0.2c0.2,0,0.4,0.1,0.6,0.1c0.3,0,0.6-0.1,0.9-0.2c0.3-0.1,0.6-0.3,0.8-0.6
			c0,0.2,0,0.4,0.2,0.6c0.1,0.1,0.3,0.2,0.5,0.2c0.2,0,0.4,0,0.6-0.1v-0.6c-0.1,0-0.2,0-0.2,0C103.8,56.2,103.7,56.2,103.7,56.1z
			 M102.9,55.2c0,0.1,0,0.2-0.1,0.4c-0.1,0.1-0.2,0.3-0.3,0.4c-0.1,0.1-0.3,0.2-0.5,0.3c-0.2,0.1-0.4,0.1-0.7,0.1
			c-0.1,0-0.2,0-0.4,0c-0.1,0-0.2-0.1-0.3-0.1c-0.1-0.1-0.2-0.1-0.2-0.2c-0.1-0.1-0.1-0.2-0.1-0.3c0-0.1,0-0.3,0.1-0.4
			c0.1-0.1,0.1-0.2,0.2-0.3c0.1-0.1,0.2-0.1,0.3-0.2c0.1,0,0.2-0.1,0.4-0.1l0.4-0.1c0.1,0,0.3,0,0.4-0.1l0.4-0.1
			c0.1,0,0.2-0.1,0.3-0.1V55.2z"/>
		<path id="Path_57_" class="st55" d="M106,50.5h-0.8V52h-0.8v0.7h0.8v3.1c0,0.2,0,0.4,0.1,0.5c0,0.1,0.1,0.2,0.2,0.3
			c0.1,0.1,0.2,0.1,0.4,0.1c0.2,0,0.4,0,0.5,0h0.6v-0.7h-0.4h-0.3c-0.1,0-0.1,0-0.2-0.1c0,0-0.1-0.1-0.1-0.1c0-0.1,0-0.2,0-0.2v-3
			h0.9V52h-0.9L106,50.5z"/>
		<path id="Shape_4_" class="st55" d="M111.7,56.1c0-0.1,0-0.3,0-0.4v-2.5c0-0.2,0-0.5-0.1-0.7c-0.1-0.2-0.3-0.3-0.4-0.4
			c-0.2-0.1-0.4-0.2-0.6-0.2c-0.2,0-0.4,0-0.7,0c-0.3,0-0.5,0-0.8,0.1c-0.2,0.1-0.5,0.1-0.6,0.3c-0.2,0.1-0.3,0.3-0.5,0.5
			c-0.1,0.2-0.2,0.5-0.2,0.8h0.8c0-0.3,0.1-0.6,0.4-0.7c0.3-0.1,0.5-0.2,0.8-0.2c0.1,0,0.3,0,0.4,0c0.1,0,0.2,0.1,0.3,0.1
			c0.1,0.1,0.2,0.1,0.3,0.3c0.1,0.1,0.1,0.3,0.1,0.4c0,0.1,0,0.3-0.1,0.3c-0.1,0.1-0.2,0.1-0.4,0.2c-0.2,0-0.3,0.1-0.5,0.1
			c-0.2,0-0.4,0.1-0.6,0.1c-0.2,0-0.4,0.1-0.6,0.1c-0.2,0.1-0.4,0.1-0.5,0.3c-0.2,0.1-0.3,0.3-0.4,0.4c-0.1,0.2-0.2,0.4-0.1,0.7
			c0,0.2,0,0.4,0.1,0.6c0.1,0.2,0.2,0.3,0.3,0.4c0.2,0.1,0.3,0.2,0.5,0.2c0.2,0,0.4,0.1,0.6,0.1c0.3,0,0.6-0.1,0.9-0.2
			c0.3-0.1,0.6-0.3,0.8-0.6c0,0.2,0.1,0.4,0.2,0.6c0.1,0.1,0.3,0.2,0.5,0.2c0.2,0,0.4,0,0.6-0.1v-0.6c-0.1,0-0.2,0-0.2,0
			C111.8,56.2,111.7,56.2,111.7,56.1z M110.9,55.2c0,0.1,0,0.2-0.1,0.4c-0.1,0.1-0.1,0.3-0.3,0.4c-0.1,0.1-0.3,0.2-0.5,0.3
			c-0.2,0.1-0.4,0.1-0.7,0.1c-0.1,0-0.2,0-0.4,0c-0.1,0-0.2-0.1-0.3-0.1c-0.1-0.1-0.2-0.1-0.2-0.2c-0.1-0.1-0.1-0.2-0.1-0.3
			c0-0.1,0-0.3,0.1-0.4c0-0.1,0.1-0.2,0.2-0.3c0.1-0.1,0.2-0.1,0.3-0.2c0.1,0,0.2-0.1,0.4-0.1l0.4-0.1c0.1,0,0.3,0,0.4-0.1l0.4-0.1
			c0.1,0,0.2-0.1,0.3-0.1V55.2z"/>
		<path id="Shape_5_" class="st55" d="M119.8,54.9c0.1-0.1,0.1-0.2,0.1-0.3c0-0.1,0.1-0.3,0.1-0.4c0-0.1,0-0.3,0.1-0.5h-0.8
			c0,0.4-0.1,0.7-0.2,1l-1.2-1.5c0.2-0.1,0.3-0.2,0.5-0.3c0.2-0.1,0.3-0.2,0.4-0.4c0.1-0.1,0.2-0.3,0.3-0.5c0.1-0.2,0.1-0.4,0.1-0.6
			c0-0.2,0-0.4-0.1-0.6c-0.1-0.2-0.2-0.3-0.4-0.4c-0.2-0.1-0.3-0.2-0.5-0.3c-0.2-0.1-0.4-0.1-0.6-0.1c-0.2,0-0.4,0-0.6,0.1
			c-0.2,0.1-0.3,0.2-0.5,0.3c-0.1,0.1-0.2,0.3-0.3,0.4c-0.1,0.3-0.1,0.6,0,0.9c0,0.1,0.1,0.3,0.2,0.4c0.1,0.1,0.1,0.2,0.2,0.4
			l0.3,0.4c-0.2,0.1-0.4,0.2-0.6,0.4c-0.2,0.1-0.4,0.3-0.5,0.4c-0.1,0.2-0.3,0.3-0.3,0.5c-0.1,0.2-0.1,0.5-0.1,0.7
			c0,0.2,0,0.3,0.1,0.5c0.1,0.2,0.2,0.4,0.3,0.6c0.2,0.2,0.4,0.4,0.6,0.5c0.3,0.2,0.7,0.2,1.1,0.2c0.2,0,0.4,0,0.6-0.1
			c0.2,0,0.4-0.1,0.5-0.2c0.2-0.1,0.3-0.2,0.5-0.3c0.1-0.1,0.3-0.3,0.4-0.4l0.7,0.8h1l-1.3-1.5C119.7,55.2,119.8,55,119.8,54.9z
			 M117.1,51c0.2-0.1,0.3-0.2,0.5-0.2c0.2,0,0.4,0.1,0.6,0.2c0.1,0.1,0.2,0.3,0.2,0.5c0,0.1,0,0.3-0.1,0.4c-0.1,0.1-0.1,0.2-0.2,0.3
			c-0.1,0.1-0.2,0.2-0.3,0.3l-0.3,0.2l-0.2-0.3l-0.2-0.3c-0.1-0.1-0.1-0.2-0.2-0.3c0-0.1-0.1-0.2-0.1-0.3
			C116.8,51.3,116.9,51.1,117.1,51L117.1,51z M118.2,56c-0.3,0.1-0.5,0.2-0.8,0.2c-0.2,0-0.3,0-0.5-0.1c-0.2-0.1-0.3-0.1-0.4-0.2
			c-0.2-0.2-0.4-0.5-0.4-0.8c0-0.2,0-0.4,0.1-0.5c0.1-0.1,0.1-0.3,0.3-0.4c0.1-0.1,0.2-0.2,0.4-0.3c0.1-0.1,0.3-0.2,0.4-0.3l1.5,1.9
			C118.6,55.7,118.4,55.9,118.2,56z"/>
		<path id="Shape_6_" class="st55" d="M126,50.1l-2.6,6.7h0.9l0.8-2h2.8l0.7,2h0.9l-2.6-6.7H126z M125.3,54.1l1.1-3.1l0,0l1.1,3.1
			H125.3z"/>
		<rect id="Rectangle_1_" x="130.3" y="50.1" class="st55" width="1" height="6.7"/>
		<path id="Shape_7_" class="st55" d="M137.1,50.1l-2.6,6.7h0.9l0.8-2h2.8l0.7,2h1l-2.6-6.7H137.1z M136.4,54.1l1.1-3.1l0,0l1.2,3.1
			H136.4z"/>
		<path id="Path_58_" class="st55" d="M144.5,54.7c0,0.2,0,0.4-0.1,0.6c-0.1,0.2-0.1,0.3-0.3,0.5c-0.1,0.1-0.3,0.2-0.4,0.3
			c-0.2,0.1-0.4,0.1-0.6,0.1c-0.3,0-0.5-0.1-0.7-0.3c-0.2-0.2-0.3-0.4-0.3-0.7V52h-0.8v3.2c0,0.2,0,0.5,0.1,0.7
			c0.1,0.2,0.1,0.4,0.3,0.6c0.1,0.2,0.3,0.3,0.5,0.4c0.3,0.1,0.5,0.1,0.8,0.1c0.3,0,0.6-0.1,0.9-0.2c0.3-0.2,0.5-0.4,0.7-0.7l0,0
			v0.8h0.8V52h-0.8V54.7z"/>
		<path id="Path_59_" class="st55" d="M147.6,50.5h-0.8V52h-0.8v0.7h0.8v3.1c0,0.2,0,0.4,0.1,0.5c0,0.1,0.1,0.2,0.2,0.3
			c0.1,0.1,0.2,0.1,0.4,0.1c0.2,0,0.4,0,0.5,0h0.6v-0.7h-0.4h-0.3c-0.1,0-0.1,0-0.2-0.1c0,0-0.1-0.1-0.1-0.1c0-0.1,0-0.2,0-0.2v-3
			h0.9V52h-0.9L147.6,50.5z"/>
		<path id="Path_60_" class="st55" d="M153.1,52.4c-0.1-0.2-0.3-0.3-0.5-0.4c-0.3-0.1-0.5-0.1-0.8-0.1c-0.3,0-0.6,0.1-0.9,0.2
			c-0.1,0.1-0.3,0.2-0.4,0.3c-0.1,0.1-0.2,0.2-0.3,0.4l0,0v-2.6h-0.8v6.7h0.8v-2.7c0-0.2,0-0.4,0.1-0.6c0.1-0.2,0.1-0.3,0.3-0.5
			c0.1-0.1,0.3-0.3,0.4-0.3c0.2-0.1,0.4-0.1,0.6-0.1c0.3,0,0.5,0.1,0.7,0.3c0.2,0.2,0.3,0.4,0.3,0.7v3.3h0.8v-3.2
			c0-0.2,0-0.5-0.1-0.7C153.3,52.7,153.2,52.5,153.1,52.4z"/>
		<path id="Shape_8_" class="st55" d="M158.4,52.6c-0.2-0.2-0.5-0.4-0.7-0.5c-0.3-0.1-0.7-0.2-1-0.2c-0.4,0-0.7,0.1-1,0.2
			c-0.3,0.1-0.5,0.3-0.7,0.5c-0.2,0.2-0.4,0.5-0.4,0.8c-0.1,0.3-0.2,0.7-0.1,1c0,0.3,0,0.7,0.1,1c0.1,0.3,0.2,0.6,0.4,0.8
			c0.2,0.2,0.4,0.4,0.7,0.5c0.3,0.1,0.7,0.2,1,0.2c0.3,0,0.7-0.1,1-0.2c0.3-0.1,0.5-0.3,0.7-0.5c0.2-0.2,0.4-0.5,0.4-0.8
			c0.1-0.3,0.2-0.7,0.2-1c0-0.3,0-0.7-0.2-1C158.8,53.1,158.7,52.8,158.4,52.6L158.4,52.6z M158.1,55.2c-0.1,0.2-0.2,0.4-0.3,0.6
			c-0.1,0.2-0.3,0.3-0.5,0.4c-0.4,0.2-0.8,0.2-1.2,0c-0.2-0.1-0.3-0.2-0.5-0.4c-0.1-0.2-0.3-0.4-0.3-0.6c-0.1-0.5-0.1-1.1,0-1.6
			c0.1-0.2,0.2-0.4,0.3-0.6c0.1-0.2,0.3-0.3,0.5-0.4c0.4-0.2,0.8-0.2,1.2,0c0.2,0.1,0.3,0.2,0.5,0.4c0.1,0.2,0.3,0.4,0.3,0.6
			C158.2,54.1,158.2,54.7,158.1,55.2L158.1,55.2z"/>
		<path id="Path_61_" class="st55" d="M160.8,53L160.8,53v-1H160v4.9h0.8v-2.2c0-0.3,0-0.6,0.1-0.8c0.1-0.2,0.2-0.4,0.3-0.6
			c0.1-0.2,0.3-0.3,0.6-0.4c0.3-0.1,0.5-0.1,0.8-0.1v-0.8c-0.4,0-0.8,0.1-1.1,0.3C161.2,52.3,160.9,52.7,160.8,53L160.8,53z"/>
		<rect id="Rectangle_2_" x="163.2" y="52" class="st55" width="1" height="4.8"/>
		<path id="Path_62_" class="st55" d="M166.3,50.5h-0.8V52h-0.8v0.7h0.8v3.1c0,0.2,0,0.4,0.1,0.5c0,0.1,0.1,0.2,0.2,0.3
			c0.1,0.1,0.2,0.1,0.4,0.1c0.2,0,0.4,0,0.5,0h0.6v-0.7h-0.4h-0.3c-0.1,0-0.1,0-0.2-0.1c0,0-0.1-0.1-0.1-0.1c0-0.1,0-0.2,0-0.2v-3
			h0.9V52h-0.9L166.3,50.5z"/>
		<path id="Path_63_" class="st55" d="M171.3,52l-1.4,4l0,0l-1.4-4h-0.9l1.9,4.8l-0.3,0.8c-0.1,0.1-0.2,0.2-0.3,0.3
			c-0.1,0.1-0.3,0.1-0.4,0.1c-0.1,0-0.2,0-0.2,0l-0.2-0.1v0.7c0.1,0,0.2,0.1,0.3,0.1h0.3c0.2,0,0.3,0,0.5-0.1c0.1,0,0.3-0.1,0.4-0.2
			c0.1-0.1,0.2-0.3,0.3-0.4c0.1-0.2,0.2-0.4,0.3-0.6l2.1-5.5L171.3,52z"/>
		<polygon id="Path_64_" class="st55" points="89.4,50.1 88.6,50.1 88.6,51.1 89.4,50.6 		"/>
		<polygon id="Path_65_" class="st55" points="164,50.1 163.2,50.1 163.2,51.1 164,50.6 		"/>
		<path id="Path_66_" class="st55" d="M66.5,33.8c0.2,0.1,0.4,0.2,0.6,0.2c0.3,0.1,0.6,0.1,0.9,0.1h5.7v-3.6h-0.8v2.8h-4.6
			c-0.3,0-0.5,0-0.7,0c-0.2,0-0.3-0.1-0.5-0.1C67,33.2,67,33.1,66.9,33c-0.1-0.1-0.1-0.3-0.1-0.5v-1.2h-0.8v1.5c0,0.2,0,0.4,0.1,0.6
			C66.2,33.6,66.3,33.7,66.5,33.8L66.5,33.8z"/>
		<path id="Path_67_" class="st55" d="M75.3,33.9c0.1,0.1,0.3,0.2,0.4,0.2c0.2,0,0.4,0.1,0.5,0.1h3.8v-3.6h-0.8v2.8h-3
			c-0.3,0-0.5-0.1-0.5-0.2c-0.1-0.2-0.1-0.4-0.1-0.6v-5.2H75v5.4c0,0.2,0,0.4,0.1,0.6C75.1,33.6,75.2,33.8,75.3,33.9z"/>
		<path id="Path_68_" class="st55" d="M81.8,33.9c0.1,0.1,0.3,0.2,0.4,0.2c0.2,0,0.4,0.1,0.6,0.1h2.4c0.3,0,0.6,0,0.9-0.1
			c0.2-0.1,0.4-0.3,0.5-0.5c0,0.2,0.2,0.3,0.3,0.4c0.2,0.1,0.4,0.2,0.6,0.2h0.8c0.3,0,0.6,0,0.9-0.1c0.2-0.1,0.4-0.3,0.5-0.5
			c0.1,0.2,0.2,0.3,0.3,0.4c0.2,0.1,0.4,0.2,0.6,0.2h0.7c0.3,0,0.6,0,0.9-0.1c0.2-0.1,0.4-0.3,0.5-0.5c0,0.2,0.1,0.3,0.3,0.4
			c0.2,0.1,0.4,0.2,0.6,0.2H96v-6.7h-0.8v5.9h-1.5c-0.2,0-0.5-0.1-0.6-0.3c-0.1-0.2-0.2-0.5-0.2-0.8v-4.9h-0.8v5.2
			c0,0.1,0,0.2-0.1,0.4c-0.1,0.2-0.2,0.3-0.4,0.3h-0.3h-0.8c-0.1,0-0.3,0-0.4-0.1c-0.1-0.1-0.2-0.1-0.3-0.2
			c-0.1-0.1-0.1-0.2-0.1-0.3c0-0.1,0-0.3,0-0.4v-1.8H89v2.1c0,0.1,0,0.2,0,0.4c0,0.1-0.1,0.2-0.2,0.2c-0.1,0-0.2,0.1-0.3,0.1h-0.4
			h-0.6c-0.1,0-0.3,0-0.4-0.1c-0.1-0.1-0.2-0.1-0.3-0.2c-0.1-0.1-0.1-0.2-0.1-0.3c0-0.1,0-0.3,0-0.4v-1.8h-0.8v2.1
			c0,0.1,0,0.2,0,0.4c0,0.1-0.1,0.2-0.2,0.2c-0.1,0-0.2,0.1-0.3,0.1h-0.4h-2.3c-0.3,0-0.5-0.1-0.5-0.2c-0.1-0.2-0.1-0.4-0.1-0.6
			v-5.2h-0.8v5.4c0,0.2,0,0.4,0.1,0.6C81.6,33.6,81.7,33.8,81.8,33.9L81.8,33.9z"/>
		<path id="Shape_9_" class="st55" d="M99.8,33.1c0.2,0.1,0.4,0.2,0.6,0.2c0.2,0,0.3,0.1,0.5,0.1c0.2,0,0.3,0,0.5,0
			c0.2,0,0.3-0.1,0.5-0.1c0,0.3,0.2,0.6,0.4,0.8c0.1,0.1,0.3,0.1,0.4,0.1c0.2,0,0.3,0,0.5,0h3.9v-3.6h-0.8v2.8h-3.1
			c-0.3,0-0.5-0.1-0.5-0.2c-0.1-0.2-0.1-0.4-0.1-0.6V30h-1.5c-0.2,0-0.5,0-0.7,0.1c-0.2,0.1-0.4,0.2-0.6,0.3
			c-0.2,0.2-0.3,0.3-0.5,0.6c-0.1,0.3-0.2,0.6-0.2,0.8c0,0.3,0.1,0.6,0.2,0.8C99.5,32.8,99.6,33,99.8,33.1z M100.2,31
			c0.2-0.2,0.5-0.2,0.8-0.2h0.8v1.7c-0.1,0-0.3,0.1-0.4,0.1c-0.1,0-0.3,0-0.4,0c-0.3,0-0.6-0.1-0.8-0.2c-0.2-0.2-0.3-0.4-0.3-0.7
			C99.9,31.3,100,31.1,100.2,31L100.2,31z"/>
		<path id="Path_69_" class="st55" d="M111.2,33.9c0.2-0.2,0.3-0.5,0.3-0.7c0-0.1,0-0.3-0.1-0.4c-0.1-0.2-0.2-0.4-0.3-0.5
			c-0.1-0.2-0.3-0.5-0.5-0.8c-0.2-0.3-0.4-0.7-0.7-1.1l-0.7,0.5l0.8,1.1c0.2,0.3,0.3,0.5,0.4,0.6c0.1,0.1,0.1,0.2,0.2,0.3
			c0,0.1,0,0.1,0,0.2c0,0.1,0,0.2-0.1,0.2c-0.1,0.1-0.3,0.1-0.4,0.1H108v0.8h2.2C110.6,34.2,110.9,34.1,111.2,33.9L111.2,33.9z"/>
		<path id="Shape_10_" class="st55" d="M131,33.4h-1.5c-0.1,0-0.3,0-0.4-0.1c-0.1-0.1-0.2-0.1-0.3-0.2c-0.1-0.1-0.1-0.2-0.1-0.3
			c0-0.1,0-0.3,0-0.4v-1.8H128v2.1c0,0.1,0,0.2,0,0.4c0,0.1-0.1,0.2-0.2,0.2c-0.1,0-0.1,0.1-0.2,0.1h-0.3c-0.2,0-0.3,0-0.4-0.1
			c-0.1,0-0.2-0.1-0.3-0.2c-0.1-0.1-0.1-0.2-0.1-0.3c0-0.1,0-0.3,0-0.4V31h-0.8v1.7c0,0.1,0,0.2-0.1,0.4c0,0.1-0.1,0.2-0.2,0.2
			c-0.1,0-0.2,0.1-0.3,0.1h-0.4c-0.2,0-0.4,0-0.5-0.1c-0.1,0-0.2-0.1-0.3-0.2c-0.1-0.1-0.1-0.2-0.1-0.3c0-0.1,0-0.3,0-0.4V31h-0.8
			v1.7c0,0.1,0,0.2-0.1,0.4c0,0.1-0.1,0.2-0.2,0.2c-0.1,0.1-0.2,0.1-0.3,0.1H122h-1.6c-0.2,0-0.3,0-0.5,0c0.3-0.2,0.6-0.5,0.8-0.8
			c0.2-0.3,0.3-0.6,0.3-0.9c0-0.1,0-0.3-0.1-0.4c-0.1-0.1-0.2-0.3-0.3-0.4c-0.1-0.1-0.3-0.2-0.5-0.3c-0.2-0.1-0.5-0.1-0.7-0.1
			c-0.3,0-0.6,0.1-0.9,0.2c-0.3,0.1-0.5,0.3-0.7,0.5c0,0-0.1,0.1-0.1,0.1c0,0.1-0.1,0.1-0.1,0.2c0,0.1-0.1,0.1-0.1,0.2
			c0,0.1-0.1,0.1-0.1,0.2l1.2,1.3c-0.2,0.1-0.4,0.1-0.7,0.2c-0.2,0-0.5,0-0.7,0H116v-0.4c0-0.3,0-0.7-0.1-1
			c-0.1-0.3-0.2-0.5-0.3-0.8c-0.1-0.2-0.3-0.4-0.5-0.5c-0.3-0.1-0.5-0.2-0.8-0.2c-0.3,0-0.5,0.1-0.8,0.2c-0.2,0.1-0.4,0.3-0.6,0.5
			c-0.2,0.2-0.3,0.4-0.4,0.6c-0.1,0.2-0.1,0.5-0.1,0.8c0,0.3,0,0.5,0.1,0.8c0.1,0.2,0.2,0.4,0.4,0.5c0.2,0.1,0.4,0.2,0.6,0.3
			c0.2,0.1,0.5,0.1,0.7,0.1h1.1c0,0.2-0.1,0.4-0.2,0.6c-0.1,0.2-0.2,0.3-0.4,0.4c-0.2,0.1-0.4,0.2-0.6,0.2c-0.3,0-0.5,0-0.8,0h-0.3
			v0.8h0.4c0.4,0,0.7,0,1.1-0.1c0.3-0.1,0.6-0.2,0.8-0.3c0.2-0.1,0.4-0.4,0.5-0.6c0.1-0.3,0.2-0.6,0.2-0.9h1.1c0.3,0,0.6,0,0.9-0.1
			c0.3-0.1,0.6-0.2,0.9-0.3c0.2,0.1,0.3,0.2,0.5,0.3c0.2,0,0.3,0.1,0.5,0.1h1.9c0.3,0,0.5,0,0.7,0c0.2,0,0.3,0,0.5-0.1
			c0.1,0,0.2-0.1,0.3-0.2c0.1-0.1,0.2-0.2,0.2-0.3c0,0.1,0,0.1,0.1,0.2c0.1,0.1,0.1,0.1,0.2,0.2c0.1,0.1,0.2,0.1,0.4,0.1
			c0.2,0,0.4,0.1,0.6,0.1c0.3,0,0.6,0,0.8-0.1c0.2-0.1,0.4-0.3,0.5-0.5c0,0.1,0.1,0.1,0.1,0.2c0.1,0.1,0.1,0.1,0.2,0.2
			c0.1,0.1,0.2,0.1,0.4,0.2c0.2,0,0.3,0.1,0.5,0.1h0.3c0.1,0,0.2,0,0.3-0.1c0.1,0,0.2-0.1,0.3-0.2c0.1-0.1,0.2-0.2,0.2-0.3
			c0.1,0.2,0.2,0.3,0.3,0.4c0.2,0.1,0.4,0.2,0.6,0.2h2.2v-6.7H131L131,33.4z M115.2,33.4h-1c-0.3,0-0.6-0.1-0.8-0.2
			c-0.2-0.2-0.3-0.4-0.3-0.7c0-0.1,0-0.3,0.1-0.4c0-0.1,0.1-0.3,0.2-0.4c0.1-0.1,0.2-0.2,0.3-0.3c0.1-0.1,0.3-0.1,0.5-0.1
			c0.3,0,0.6,0.1,0.8,0.4c0.2,0.3,0.3,0.7,0.2,1.1V33.4z M119.1,32.9l-1.1-1.2c0.1-0.2,0.3-0.3,0.5-0.4c0.2-0.1,0.5-0.2,0.7-0.1
			c0.2,0,0.5,0,0.7,0.2c0.1,0.1,0.2,0.2,0.2,0.4c0,0.2-0.1,0.5-0.3,0.7C119.6,32.6,119.4,32.8,119.1,32.9L119.1,32.9z"/>
		<rect id="Rectangle_3_" x="133.1" y="27.5" class="st55" width="1" height="6.7"/>
		<path id="Path_70_" class="st55" d="M145.7,29h-0.6c-0.2,0-0.3,0-0.5-0.2c-0.1-0.1-0.2-0.3-0.2-0.5c0-0.1,0-0.3,0.1-0.4
			c0.1-0.1,0.3-0.2,0.4-0.2c0.2,0,0.3,0,0.5,0.1v-0.5l-0.2,0c-0.1,0-0.2,0-0.3,0c-0.1,0-0.3,0-0.4,0.1c-0.1,0-0.2,0.1-0.3,0.2
			c-0.1,0.1-0.2,0.2-0.2,0.3c-0.1,0.1-0.1,0.3-0.1,0.5c0,0.2,0.1,0.5,0.2,0.6h-0.5v0.5h2V29z"/>
		<path id="Shape_11_" class="st55" d="M156.1,27.5h-0.8v5.9h-2.8l0,0c0.2-0.2,0.3-0.4,0.5-0.6c0.1-0.3,0.2-0.6,0.2-0.9
			c0-0.2,0-0.3-0.1-0.5c-0.1-0.2-0.1-0.3-0.3-0.5c-0.1-0.2-0.3-0.3-0.4-0.4c-0.2-0.1-0.5-0.2-0.7-0.1c-0.5,0-1,0.2-1.3,0.6
			c-0.3,0.5-0.5,1.1-0.5,1.7v0.5h-0.9c-0.1,0-0.3,0-0.4-0.1c-0.1-0.1-0.2-0.1-0.3-0.2c-0.1-0.1-0.1-0.2-0.1-0.3c0-0.1,0-0.3,0-0.4
			v-1.8h-0.8v2.1c0,0.1,0,0.2,0,0.4c0,0.1-0.1,0.2-0.2,0.2c-0.1,0-0.2,0.1-0.3,0.1h-0.4h-0.6c-0.1,0-0.3,0-0.4-0.1
			c-0.1-0.1-0.2-0.1-0.3-0.2c-0.1-0.1-0.1-0.2-0.1-0.3c0-0.1,0-0.3,0-0.4v-1.8h-0.9v2.1c0,0.1,0,0.2-0.1,0.4c0,0.1-0.1,0.2-0.2,0.2
			c-0.1,0-0.2,0.1-0.3,0.1h-0.4h-2.2c-0.3,0-0.5-0.1-0.5-0.2c-0.1-0.2-0.1-0.4-0.1-0.6V30h-1.5c-0.2,0-0.5,0-0.7,0.1
			c-0.2,0.1-0.4,0.2-0.6,0.3c-0.2,0.2-0.3,0.3-0.5,0.6c-0.1,0.3-0.2,0.6-0.2,0.8c0,0.3,0.1,0.6,0.2,0.8c0.1,0.2,0.3,0.4,0.5,0.5
			c0.2,0.1,0.4,0.2,0.6,0.2c0.2,0,0.3,0.1,0.5,0.1c0.2,0,0.3,0,0.5,0c0.2,0,0.3-0.1,0.5-0.1c0,0.2,0.1,0.3,0.2,0.5
			c0.1,0.1,0.2,0.2,0.3,0.3c0.1,0.1,0.3,0.1,0.4,0.1c0.2,0,0.3,0,0.5,0h2.5c0.3,0,0.6,0,0.9-0.1c0.2-0.1,0.4-0.3,0.5-0.5
			c0,0.2,0.2,0.3,0.3,0.4c0.2,0.1,0.4,0.2,0.6,0.2h0.8c0.3,0,0.6,0,0.9-0.1c0.2-0.1,0.4-0.3,0.5-0.5c0,0.2,0.2,0.3,0.3,0.4
			c0.2,0.1,0.4,0.2,0.6,0.2h1v0.1c0,0.3,0,0.6,0.1,0.9c0.1,0.2,0.1,0.5,0.3,0.7c0.1,0.2,0.3,0.3,0.5,0.4c0.3,0.1,0.5,0.2,0.8,0.2
			c0.2,0,0.4,0,0.6-0.1c0.2-0.1,0.3-0.2,0.5-0.3c0.1-0.1,0.2-0.3,0.3-0.4c0.1-0.2,0.1-0.3,0.1-0.5c0-0.1,0-0.3-0.1-0.4
			c-0.1-0.2-0.2-0.3-0.3-0.5l0,0h3.3L156.1,27.5z M139.8,32.4c-0.1,0-0.3,0.1-0.4,0.1c-0.1,0-0.3,0-0.4,0c-0.3,0-0.6-0.1-0.8-0.2
			c-0.2-0.2-0.3-0.4-0.3-0.6c0-0.3,0.1-0.6,0.3-0.7c0.2-0.2,0.5-0.2,0.8-0.2h0.8V32.4z M150.8,32.8c0-0.4,0.1-0.8,0.3-1.2
			c0.1-0.3,0.4-0.4,0.7-0.4c0.2,0,0.4,0.1,0.5,0.2c0.2,0.2,0.2,0.4,0.2,0.7c0,0.1,0,0.3-0.1,0.4c0,0.2-0.1,0.3-0.2,0.4
			c-0.1,0.1-0.2,0.3-0.4,0.3c-0.2,0.1-0.4,0.1-0.6,0.1h-0.4V32.8z M152.3,35.6c-0.2,0.1-0.4,0.2-0.6,0.2c-0.2,0-0.3,0-0.5-0.1
			c-0.1-0.1-0.2-0.2-0.3-0.3c-0.1-0.1-0.1-0.3-0.1-0.4c0-0.2,0-0.4,0-0.6v-0.2h0.7c0.2,0,0.4,0,0.6,0.1c0.1,0.1,0.2,0.1,0.3,0.2
			c0.1,0.1,0.1,0.2,0.1,0.3c0,0.1,0,0.2,0,0.2C152.5,35.2,152.4,35.4,152.3,35.6L152.3,35.6z"/>
		<rect id="Rectangle_4_" x="157.5" y="27.5" class="st55" width="1" height="6.7"/>
		<path id="Path_71_" class="st55" d="M72.1,45.5h4.8v-0.8h-1.4c-0.3,0-0.7-0.1-0.9-0.3c-0.2-0.2-0.3-0.5-0.3-0.8
			c0-0.3,0.1-0.6,0.3-0.8c0.3-0.2,0.6-0.3,0.9-0.3c0.2,0,0.3,0,0.5,0c0.1,0,0.3,0.1,0.4,0.1v-0.8c-0.1,0-0.2-0.1-0.3-0.1
			c-0.2,0-0.4,0-0.6,0c-0.2,0-0.5,0-0.7,0.1c-0.2,0.1-0.5,0.2-0.7,0.3c-0.2,0.2-0.4,0.4-0.5,0.6c-0.1,0.3-0.2,0.6-0.2,0.8
			c0,0.2,0,0.4,0.1,0.6c0.1,0.2,0.2,0.3,0.3,0.5h-2.1c-0.8,0-1.5-0.2-2.3-0.4V45l0.7,0.2c0.2,0.1,0.5,0.1,0.7,0.2
			c0.2,0.1,0.4,0.2,0.5,0.3c0.1,0.1,0.2,0.2,0.2,0.4c0,0.1-0.1,0.3-0.2,0.3c-0.2,0.1-0.3,0.2-0.5,0.3c-0.2,0.1-0.5,0.1-0.8,0.2
			c-0.3,0-0.6,0-0.9,0c-0.6,0-1.3-0.1-1.9-0.4c-0.4-0.3-0.6-0.7-0.6-1.2v-1.2H66v1.4c0,0.3,0,0.6,0.1,0.9c0.1,0.3,0.3,0.5,0.5,0.7
			c0.3,0.2,0.6,0.4,0.9,0.5c0.5,0.1,1,0.2,1.6,0.2c0.5,0,1,0,1.4-0.1c0.3-0.1,0.6-0.2,0.9-0.3c0.2-0.1,0.4-0.3,0.5-0.5
			c0.1-0.2,0.2-0.4,0.2-0.6c0-0.1,0-0.3-0.1-0.4C72.2,45.7,72.1,45.6,72.1,45.5L72.1,45.5z"/>
		<path id="Shape_12_" class="st55" d="M97.5,41.8c-0.4,0-0.8,0.1-1.2,0.3c-0.4,0.2-0.7,0.4-1,0.7c-0.3,0.3-0.5,0.6-0.8,0.9
			c-0.2,0.3-0.4,0.7-0.5,1c-0.1,0-0.2,0-0.4-0.1c-0.1,0-0.2-0.1-0.2-0.2c-0.1-0.1-0.1-0.2-0.1-0.3c0-0.1,0-0.3,0-0.4v-1.3h-0.8v1.7
			c0,0.1,0,0.2-0.1,0.4c0,0.1-0.1,0.2-0.2,0.2c-0.1,0.1-0.2,0.1-0.3,0.1h-0.5h-1v-0.8c0-0.6-0.2-1.1-0.5-1.6
			c-0.4-0.4-0.9-0.6-1.4-0.6c-0.5,0-1,0.1-1.5,0.4c-0.5,0.3-0.8,0.7-1.1,1.2v-4.6h-0.8v5.9h-1.1c-0.1,0-0.3,0-0.4-0.1
			c-0.1,0-0.2-0.1-0.3-0.2c-0.1-0.1-0.1-0.2-0.1-0.3c0-0.1,0-0.3,0-0.4v-1.8h-0.8v2.2c0,0.1,0,0.2-0.1,0.4c0,0.1-0.1,0.2-0.2,0.2
			c-0.1,0-0.2,0.1-0.3,0.1h-0.4h-2.2c-0.3,0-0.5-0.1-0.5-0.2c-0.1-0.2-0.1-0.4-0.1-0.6v-5.2h-0.8v5.4c0,0.2,0,0.4,0.1,0.6
			c0.1,0.2,0.1,0.3,0.3,0.4c0.1,0.1,0.3,0.2,0.4,0.2c0.2,0,0.4,0.1,0.5,0.1h2.4c0.3,0,0.6,0,0.9-0.1c0.2-0.1,0.4-0.3,0.5-0.5
			c0,0.2,0.2,0.3,0.3,0.4c0.2,0.1,0.4,0.2,0.6,0.2h7.4c0.3,0,0.5,0,0.7,0c0.2,0,0.4,0,0.5-0.1c0.1,0,0.3-0.1,0.4-0.2
			c0.1-0.1,0.2-0.2,0.2-0.3c0,0.1,0.1,0.1,0.1,0.2c0,0.1,0.1,0.1,0.2,0.2c0.1,0.1,0.2,0.1,0.3,0.1c0.2,0,0.3,0.1,0.5,0.1h5.1v-1.6
			c0-0.6-0.1-1.1-0.5-1.6C98.6,41.9,98.1,41.7,97.5,41.8L97.5,41.8z M89.7,44.7H86c0.1-0.3,0.2-0.5,0.4-0.8c0.1-0.3,0.3-0.5,0.5-0.7
			c0.2-0.2,0.4-0.4,0.7-0.5c0.3-0.1,0.5-0.2,0.8-0.2c0.2,0,0.4,0,0.6,0.1c0.2,0.1,0.3,0.2,0.4,0.3c0.1,0.1,0.2,0.3,0.2,0.5
			c0,0.2,0.1,0.4,0.1,0.6L89.7,44.7z M98.8,44.7h-3.8c0.1-0.3,0.2-0.5,0.4-0.8c0.2-0.3,0.3-0.5,0.6-0.7c0.2-0.2,0.5-0.4,0.7-0.5
			c0.3-0.1,0.5-0.2,0.8-0.2c0.2,0,0.4,0,0.6,0.1c0.2,0.1,0.3,0.2,0.4,0.3c0.1,0.1,0.2,0.3,0.2,0.5c0,0.2,0.1,0.4,0.1,0.6V44.7z"/>
		<polygon id="Path_72_" class="st55" points="102.6,40.2 102.6,44.7 100.5,44.7 100.5,45.5 105.8,45.5 105.8,38.8 105,38.8 
			105,44.7 103.3,44.7 103.3,40.2 		"/>
		<rect id="Rectangle_5_" x="107.1" y="38.8" class="st55" width="1" height="6.7"/>
		<path id="Path_73_" class="st55" d="M112.6,44.6c-0.1-0.2-0.2-0.4-0.2-0.6c0-0.1,0-0.2,0-0.3c0-0.1,0.1-0.2,0.1-0.2
			c0.1-0.1,0.2-0.1,0.2-0.2c0.1,0,0.2-0.1,0.4-0.1c0.2,0,0.5,0,0.7,0.1v-0.7l-0.3-0.1c-0.2,0-0.3,0-0.5,0c-0.2,0-0.3,0-0.5,0.1
			c-0.2,0.1-0.3,0.1-0.4,0.3c-0.1,0.1-0.2,0.3-0.3,0.4c-0.1,0.2-0.1,0.4-0.1,0.6c0,0.3,0.1,0.6,0.3,0.9h-0.7v0.7h2.8v-0.7h-0.9
			C113,44.8,112.8,44.7,112.6,44.6L112.6,44.6z"/>
		<path id="Path_74_" class="st55" d="M118.7,41.1c0,0.1-0.1,0.1-0.1,0.2c0,0.1-0.1,0.1-0.1,0.2c0,0.1,0,0.2-0.1,0.2
			c0.3,0.2,0.7,0.4,1,0.6c0.3,0.2,0.6,0.4,0.9,0.6c0.2,0.2,0.4,0.4,0.6,0.6c0.1,0.2,0.2,0.4,0.2,0.6c0,0.2-0.1,0.4-0.2,0.5
			c-0.2,0.1-0.4,0.1-0.6,0.1h-3.8c-0.3,0-0.5-0.1-0.5-0.2c-0.1-0.2-0.1-0.4-0.1-0.6v-5.2h-0.8v5.4c0,0.2,0,0.4,0.1,0.6
			c0.1,0.2,0.2,0.3,0.3,0.4c0.1,0.1,0.3,0.2,0.4,0.2c0.2,0,0.4,0.1,0.6,0.1h3.9c0.3,0,0.5,0,0.8-0.1c0.2-0.1,0.3-0.2,0.5-0.3
			c0.1-0.1,0.2-0.3,0.2-0.4c0-0.1,0.1-0.3,0.1-0.4c0-0.2-0.1-0.4-0.1-0.6c-0.1-0.2-0.2-0.5-0.4-0.6c-0.2-0.3-0.5-0.5-0.8-0.7
			c-0.4-0.3-0.7-0.5-1.1-0.8l2.8-1.2v-0.8l-3.4,1.5L118.7,41.1z"/>
		<path id="Path_75_" class="st55" d="M125.2,44.6c-0.2,0.1-0.4,0.1-0.6,0.1h-1.7v0.8h1.4h0.5c0.1,0,0.3,0,0.4-0.1
			c0.1,0,0.3-0.1,0.4-0.2c0.1-0.1,0.2-0.2,0.3-0.4c0.1,0.2,0.3,0.4,0.5,0.6c0.2,0.1,0.4,0.2,0.6,0.2h2.2v-6.7h-0.8v5.9H127
			c-0.1,0-0.2,0-0.2-0.1c-0.1-0.1-0.2-0.1-0.2-0.2c-0.1-0.1-0.2-0.2-0.3-0.4l-0.3-0.5l-1.1-1.9l-0.7,0.5l1,1.5
			c0.1,0.1,0.2,0.3,0.2,0.4c0.1,0.1,0.1,0.2,0.1,0.4C125.4,44.5,125.3,44.6,125.2,44.6z"/>
		<rect id="Rectangle_6_" x="130.6" y="38.8" class="st55" width="1" height="6.7"/>
		<path id="Shape_13_" class="st55" d="M135.8,46.3c0.1-0.4,0.2-0.8,0.2-1.1v-0.9c0-0.3,0-0.6-0.1-0.9c0-0.3-0.1-0.5-0.3-0.8
			c-0.1-0.2-0.3-0.4-0.6-0.5c-0.3-0.1-0.5-0.2-0.8-0.2c-0.3,0-0.5,0.1-0.8,0.2c-0.2,0.1-0.4,0.3-0.6,0.4c-0.2,0.2-0.3,0.4-0.4,0.6
			c-0.1,0.2-0.1,0.5-0.1,0.7c0,0.3,0,0.5,0.1,0.8c0.1,0.2,0.2,0.4,0.4,0.5c0.2,0.1,0.3,0.2,0.5,0.3c0.2,0.1,0.5,0.1,0.7,0.1
			c0.2,0,0.5,0,0.7-0.1c0.2,0,0.3-0.1,0.4-0.2v0.2c0,0.2,0,0.5-0.2,0.7c-0.1,0.2-0.2,0.3-0.4,0.4c-0.2,0.1-0.4,0.1-0.6,0.2
			c-0.3,0-0.5,0-0.8,0h-0.3v0.8h0.4c0.4,0,0.8,0,1.1-0.1c0.3-0.1,0.6-0.2,0.9-0.3C135.5,46.8,135.7,46.6,135.8,46.3L135.8,46.3z
			 M135.2,44.4c-0.1,0.1-0.3,0.2-0.4,0.2c-0.2,0.1-0.4,0.1-0.6,0.1c-0.3,0-0.5-0.1-0.8-0.2c-0.2-0.2-0.3-0.5-0.3-0.8
			c0-0.1,0-0.3,0.1-0.4c0-0.1,0.1-0.3,0.2-0.4c0.1-0.1,0.2-0.2,0.3-0.3c0.2-0.1,0.3-0.1,0.5-0.1c0.3,0,0.6,0.1,0.8,0.4
			c0.1,0.1,0.1,0.3,0.2,0.5c0,0.2,0.1,0.4,0.1,0.6V44.4z"/>
		<polygon id="Path_76_" class="st55" points="148.8,35.1 148,35.1 148,36.1 148.8,35.6 		"/>
		<polygon id="Path_77_" class="st55" points="147.6,35.1 146.8,35.1 146.8,36.1 147.6,35.6 		"/>
		<polygon id="Path_78_" class="st55" points="140.2,28 139.4,28 139.4,29 140.2,28.6 		"/>
		<polygon id="Path_79_" class="st55" points="139,28 138.2,28 138.2,29 139,28.6 		"/>
		<polygon id="Path_80_" class="st55" points="102.2,28 101.4,28 101.4,29 102.2,28.6 		"/>
		<polygon id="Path_81_" class="st55" points="101,28 100.2,28 100.2,29 101,28.6 		"/>
		<polygon id="Path_82_" class="st55" points="107.4,35.1 106.6,35.1 106.6,36.1 107.4,35.6 		"/>
		<polygon id="Path_83_" class="st55" points="106.1,35.1 105.3,35.1 105.3,36.1 106.1,35.6 		"/>
		<polygon id="Path_84_" class="st55" points="87.3,35.1 86.5,35.1 86.5,36.1 87.3,35.6 		"/>
		<polygon id="Path_85_" class="st55" points="86.1,35.1 85.3,35.1 85.3,36.1 86.1,35.6 		"/>
		<polygon id="Path_86_" class="st55" points="89.6,35.1 88.8,35.1 88.8,36.1 89.6,35.6 		"/>
		<polygon id="Path_87_" class="st55" points="124.9,39.8 124.1,39.8 124.1,40.8 124.9,40.3 		"/>
		<polygon id="Path_88_" class="st55" points="83.4,39.8 82.6,39.8 82.6,40.8 83.4,40.3 		"/>
		<polygon id="Path_89_" class="st55" points="70.9,29 70.1,29 70.1,30 70.9,29.5 		"/>
		<polygon id="Path_90_" class="st55" points="69.7,29 68.9,29 68.9,30 69.7,29.5 		"/>
		<polygon id="Path_91_" class="st55" points="70.2,48.3 69.4,48.3 69.4,49.3 70.2,48.8 		"/>
		<polygon id="Path_92_" class="st55" points="68.9,48.3 68.1,48.3 68.1,49.3 68.9,48.8 		"/>
		<polygon id="Path_93_" class="st55" points="80.1,28.5 79.3,28.5 79.3,29.4 80.1,29 		"/>
		<path id="Shape_14_" class="st55" d="M96.9,0.7h-8.8v21.1h8.7c7.3,0,12.1-4.2,12.1-10.6S104.1,0.7,96.9,0.7z M96.9,17.1h-2.5V5.5
			h2.5c1.6-0.1,3.1,0.5,4.2,1.6c1.1,1.1,1.7,2.6,1.5,4.2c0.1,1.5-0.5,3.1-1.5,4.2C99.9,16.6,98.4,17.2,96.9,17.1L96.9,17.1z"/>
		<polygon id="Path_94_" class="st55" points="125.4,0.7 116.1,0.7 109.5,21.9 116.2,21.9 117.4,17.7 123.3,14.3 118.3,14.3 
			120.8,6.1 123.3,14.3 125.4,21.8 132.1,21.8 		"/>
		<polygon id="Path_95_" class="st55" points="159.1,0.7 149.7,0.7 143.1,21.9 149.8,21.9 151,17.7 156.9,14.3 151.9,14.3 
			154.4,6.1 156.9,14.3 158.9,21.8 165.6,21.8 		"/>
		<polygon id="Path_96_" class="st55" points="134.4,4.4 134.4,21.9 140.8,21.9 140.8,0.7 		"/>
		<path id="Path_97_" class="st55" d="M76.4,8.5c-2.3-0.3-4.1-0.5-4.1-2c0-1.1,1.2-1.9,3-1.9c2.1,0,3.7,1.2,3.6,2.8l4.8-2.8
			C82.4,1.9,79.2,0,75.1,0c-5.3,0-9,2.9-9,7.2c0,5,4.1,6.1,8.4,6.6c2.2,0.3,4.1,0.5,4.1,2.1c0,1.3-1.2,2.2-3.1,2.2
			c-2.3,0-4-1.3-4-3.1h-5.6c0,1,0.2,2,0.6,2.9c1.3,2.9,4.6,4.8,8.8,4.8c5.6,0,9.5-3.1,9.5-7.6C84.8,10.1,80.6,9,76.4,8.5z"/>
	</g>
</g>
</svg>
