<?xml version="1.0" encoding="utf-8"?>
<!-- Generator: Adobe Illustrator 25.0.0, SVG Export Plug-In . SVG Version: 6.00 Build 0)  -->
<svg version="1.1" id="Layer_1" xmlns="http://www.w3.org/2000/svg" xmlns:xlink="http://www.w3.org/1999/xlink" x="0px" y="0px"
	 viewBox="0 0 1547.03 647.04" style="enable-background:new 0 0 1547.03 647.04;" xml:space="preserve">
<style type="text/css">
	.st0{fill:#FFFFFF;}
	.st1{fill:#D2D2D1;}
	.st2{opacity:0.37;}
	.st3{opacity:0.47;clip-path:url(#SVGID_2_);}
	.st4{clip-path:url(#SVGID_4_);fill:#575E64;}
	.st5{clip-path:url(#SVGID_6_);fill:#575E64;}
	.st6{clip-path:url(#SVGID_8_);fill:#575E64;}
	.st7{clip-path:url(#SVGID_10_);fill:#575E64;}
	.st8{clip-path:url(#SVGID_12_);fill:#575E64;}
	.st9{clip-path:url(#SVGID_14_);fill:#575E64;}
	.st10{clip-path:url(#SVGID_16_);fill:#575E64;}
	.st11{opacity:0.1412;}
	.st12{clip-path:url(#SVGID_18_);}
	.st13{clip-path:url(#SVGID_20_);fill:url(#SVGID_21_);}
	.st14{opacity:0.92;}
	.st15{clip-path:url(#SVGID_23_);}
	.st16{clip-path:url(#SVGID_25_);fill:#E8E8E8;}
	.st17{opacity:0.77;}
	.st18{clip-path:url(#SVGID_27_);}
	.st19{clip-path:url(#SVGID_29_);fill:#FFFFFF;}
	.st20{opacity:0.22;}
	.st21{clip-path:url(#SVGID_31_);}
	.st22{clip-path:url(#SVGID_33_);fill:#C6C6C5;}
	.st23{clip-path:url(#SVGID_35_);fill:#C6C6C5;}
	.st24{clip-path:url(#SVGID_37_);}
	.st25{clip-path:url(#SVGID_39_);fill:#9B9A9A;}
	.st26{clip-path:url(#SVGID_41_);fill:#9B9A9A;}
</style>
<g>
	<path class="st0" d="M1208.48,627.64c-3.23,6.37-5.92,12.85-8.21,19.4c21.64-22.46,47.34-40,75.3-52.03
		c-10.98-4.73-22.3-8.6-33.86-11.58C1228.46,595.74,1217.12,610.56,1208.48,627.64"/>
	<path class="st0" d="M1419.75,558.27c-47.18-23.86-100.7-21.64-144.18,1.22c12.2,6.4,23.62,14.39,33.87,23.93
		c52.6-13.57,110.15-8.82,162.44,17.61c0.13,0.06,0.25,0.13,0.37,0.19C1458.53,583.78,1440.88,568.95,1419.75,558.27"/>
	<path class="st0" d="M1350.87,647.04c-2.28-6.55-4.99-13.04-8.21-19.4c-8.63-17.08-19.97-31.91-33.22-44.22
		c-11.56,2.98-22.88,6.86-33.86,11.58C1303.53,607.04,1329.23,624.57,1350.87,647.04"/>
	<path class="st0" d="M1131.4,558.27c-21.13,10.68-38.78,25.51-52.51,42.95c0.12-0.06,0.24-0.13,0.37-0.19
		c52.29-26.44,109.85-31.19,162.44-17.61c10.26-9.54,21.68-17.53,33.87-23.93C1232.08,536.63,1178.58,534.42,1131.4,558.27"/>
	<path class="st1" d="M1241.7,583.42c11.56,2.99,22.88,6.86,33.87,11.59c10.98-4.73,22.3-8.6,33.86-11.59
		c-10.25-9.53-21.67-17.54-33.86-23.94C1263.38,565.88,1251.96,573.89,1241.7,583.42"/>
	<g class="st2">
		<g>
			<defs>
				<rect id="SVGID_1_" x="1016.01" y="135.28" width="515.79" height="344.07"/>
			</defs>
			<clipPath id="SVGID_2_">
				<use xlink:href="#SVGID_1_"  style="overflow:visible;"/>
			</clipPath>
			<g class="st3">
				<g>
					<defs>
						<rect id="SVGID_3_" x="1182.75" y="135.28" width="184.12" height="257.69"/>
					</defs>
					<clipPath id="SVGID_4_">
						<use xlink:href="#SVGID_3_"  style="overflow:visible;"/>
					</clipPath>
					<path class="st4" d="M1273.06,391.65c0.58,0.45,1.17,0.88,1.75,1.33c0.58-0.45,1.16-0.88,1.75-1.33
						c59.36-45.52,90.3-95.27,90.3-95.27l-92.05-161.1l-92.06,161.1C1182.75,296.38,1213.71,346.13,1273.06,391.65"/>
				</g>
			</g>
			<g class="st3">
				<g>
					<defs>
						<rect id="SVGID_5_" x="1016.01" y="220.41" width="309.52" height="191.92"/>
					</defs>
					<clipPath id="SVGID_6_">
						<use xlink:href="#SVGID_5_"  style="overflow:visible;"/>
					</clipPath>
					<path class="st5" d="M1283.24,363.89c1.19-13.53,15.37-22.9,27.67-24.34c3.72-0.42,7.62,0.1,11.36,1.35l3.28-74.64
						c0,0-46.58-27.85-114.79-40.19c-0.66-0.11-1.34-0.23-2-0.34C1104.88,207.57,1016,241.74,1016,241.74l262.51,170.59
						C1278.68,396.15,1281.81,379.97,1283.24,363.89"/>
				</g>
			</g>
			<g class="st3">
				<g>
					<defs>
						<rect id="SVGID_7_" x="1035.17" y="242.94" width="306.09" height="147.87"/>
					</defs>
					<clipPath id="SVGID_8_">
						<use xlink:href="#SVGID_7_"  style="overflow:visible;"/>
					</clipPath>
					<path class="st6" d="M1324.78,299.75c2.31-9.08,8.63-15.68,16.47-19.19l-15.26-36.8c0,0-54.01-5.51-121.01,12.19
						c-0.66,0.17-1.31,0.35-1.96,0.53c-101.78,27.52-167.84,96.08-167.84,96.08l272.94,38.26
						C1303.83,360.31,1317.14,329.67,1324.78,299.75"/>
				</g>
			</g>
			<g class="st3">
				<g>
					<defs>
						<rect id="SVGID_9_" x="1134.52" y="200.74" width="236.07" height="276.23"/>
					</defs>
					<clipPath id="SVGID_10_">
						<use xlink:href="#SVGID_9_"  style="overflow:visible;"/>
					</clipPath>
					<path class="st7" d="M1360.36,269.93c-0.01,0-0.04-0.01-0.04-0.01c-1.68-0.49-3.39-1.43-4.98-2.1
						c-3.41-1.41-6.82-2.81-10.26-4.19c-6.51-2.64-13.03-5.23-19.57-7.76c-13.72-5.35-27.52-10.52-41.34-15.62
						c-14.79-5.45-23.71-18.07-21.9-33.53c-2.23-1.84-4.34-3.83-6.21-5.98c-13.5,12.48-43.65,42.98-69.77,87.85
						c-0.35,0.58-0.68,1.17-1.01,1.76c-52.52,91.44-50.75,186.62-50.75,186.62l236.07-178.04
						C1360.49,294.19,1370.63,274.32,1360.36,269.93"/>
				</g>
			</g>
			<g class="st3">
				<g>
					<defs>
						<rect id="SVGID_11_" x="1222.79" y="219.79" width="309.01" height="194.53"/>
					</defs>
					<clipPath id="SVGID_12_">
						<use xlink:href="#SVGID_11_"  style="overflow:visible;"/>
					</clipPath>
					<path class="st8" d="M1266.99,365.98c-1.46-13.49-15.82-22.6-28.14-23.8c-3.72-0.35-7.62,0.24-11.33,1.57l-4.73-74.56
						c0,0,46.04-28.76,113.98-42.41c0.68-0.13,1.33-0.25,2-0.39c103.49-20.17,193.01,12.26,193.01,12.26l-259.13,175.67
						C1272.17,398.14,1268.73,382.04,1266.99,365.98"/>
				</g>
			</g>
			<g class="st3">
				<g>
					<defs>
						<rect id="SVGID_13_" x="1208.07" y="242.94" width="306.09" height="147.87"/>
					</defs>
					<clipPath id="SVGID_14_">
						<use xlink:href="#SVGID_13_"  style="overflow:visible;"/>
					</clipPath>
					<path class="st9" d="M1224.54,299.75c-2.31-9.08-8.63-15.68-16.47-19.19l15.26-36.8c0,0,54.01-5.51,121.01,12.19
						c0.66,0.17,1.31,0.35,1.96,0.53c101.78,27.52,167.84,96.08,167.84,96.08l-272.94,38.26
						C1245.48,360.31,1232.18,329.67,1224.54,299.75"/>
				</g>
			</g>
			<g class="st3">
				<g>
					<defs>
						<rect id="SVGID_15_" x="1189.54" y="203.13" width="223.66" height="276.23"/>
					</defs>
					<clipPath id="SVGID_16_">
						<use xlink:href="#SVGID_15_"  style="overflow:visible;"/>
					</clipPath>
					<path class="st10" d="M1362.45,292.73L1362.45,292.73c-0.34-0.59-0.68-1.17-1.01-1.76c-26.12-44.87-56.3-75.36-69.79-87.84
						c-1.86,2.15-3.97,4.14-6.21,5.98c1.82,15.45-7.11,28.08-21.89,33.53c-13.83,5.1-27.62,10.27-41.35,15.62
						c-6.55,2.54-13.07,5.12-19.57,7.76c-3.42,1.39-6.85,2.78-10.26,4.21c-0.93,0.37-1.88,0.84-2.85,1.27
						c3.57,1.24,7.12,2.54,10.63,4.03c16.68,7.03,30.84,19.6,34.79,38.05c2.17,10.13-0.07,19.77-5.85,26.98l184.08,138.81
						C1413.19,479.35,1414.95,384.16,1362.45,292.73"/>
				</g>
			</g>
		</g>
	</g>
	<g class="st11">
		<g>
			<defs>
				<rect id="SVGID_17_" x="1165.95" y="169.93" width="219.26" height="306.87"/>
			</defs>
			<clipPath id="SVGID_18_">
				<use xlink:href="#SVGID_17_"  style="overflow:visible;"/>
			</clipPath>
			<g class="st12">
				<defs>
					<path id="SVGID_19_" d="M1277.65,171.51c-0.69-0.53-1.39-1.05-2.07-1.58c-0.7,0.53-1.4,1.05-2.09,1.58
						c-70.69,54.21-107.54,113.45-107.54,113.45l109.63,191.84l109.62-191.84C1385.19,284.96,1348.34,225.72,1277.65,171.51"/>
				</defs>
				<clipPath id="SVGID_20_">
					<use xlink:href="#SVGID_19_"  style="overflow:visible;"/>
				</clipPath>
				
					<linearGradient id="SVGID_21_" gradientUnits="userSpaceOnUse" x1="247.4476" y1="545.7127" x2="259.502" y2="545.7127" gradientTransform="matrix(18.1879 0 0 -18.1879 -3334.6123 10248.7529)">
					<stop  offset="0" style="stop-color:#257EC2"/>
					<stop  offset="0.8405" style="stop-color:#1F3669"/>
					<stop  offset="1" style="stop-color:#1F3669"/>
				</linearGradient>
				<rect x="1165.95" y="169.93" class="st13" width="219.24" height="306.87"/>
			</g>
		</g>
	</g>
	<g class="st14">
		<g>
			<defs>
				<rect id="SVGID_22_" x="1165.75" width="381.29" height="474.87"/>
			</defs>
			<clipPath id="SVGID_23_">
				<use xlink:href="#SVGID_22_"  style="overflow:visible;"/>
			</clipPath>
			<g class="st15">
				<defs>
					<path id="SVGID_24_" d="M1165.75,283.75c0,0,36.72-59.01,107.13-113.02C1381.01,87.8,1547.03,0,1547.03,0l-272.08,474.87
						L1165.75,283.75z"/>
				</defs>
				<use xlink:href="#SVGID_24_"  style="overflow:visible;fill:#E8E8E8;"/>
				<clipPath id="SVGID_25_">
					<use xlink:href="#SVGID_24_"  style="overflow:visible;"/>
				</clipPath>
				<rect x="1165.75" y="0" class="st16" width="381.29" height="474.87"/>
			</g>
		</g>
	</g>
	<g class="st17">
		<g>
			<defs>
				<rect id="SVGID_26_" x="1046.14" y="74.44" width="338.03" height="400.43"/>
			</defs>
			<clipPath id="SVGID_27_">
				<use xlink:href="#SVGID_26_"  style="overflow:visible;"/>
			</clipPath>
			<g class="st18">
				<defs>
					<path id="SVGID_28_" d="M1384.16,283.75c0,0-36.72-59.01-107.13-113.02c-108.12-82.94-230.89-96.28-230.89-96.28l228.82,400.42
						L1384.16,283.75z"/>
				</defs>
				<use xlink:href="#SVGID_28_"  style="overflow:visible;fill:#FFFFFF;"/>
				<clipPath id="SVGID_29_">
					<use xlink:href="#SVGID_28_"  style="overflow:visible;"/>
				</clipPath>
				
					<rect x="1024.2" y="56.32" transform="matrix(0.9933 -0.1152 0.1152 0.9933 -23.5469 141.7751)" class="st19" width="381.89" height="436.69"/>
			</g>
		</g>
	</g>
	<g class="st20">
		<g>
			<defs>
				<rect id="SVGID_30_" x="1103.51" y="175.28" width="342.35" height="109.75"/>
			</defs>
			<clipPath id="SVGID_31_">
				<use xlink:href="#SVGID_30_"  style="overflow:visible;"/>
			</clipPath>
			<g class="st21">
				<defs>
					<path id="SVGID_32_" d="M1383.64,284.59l-0.16,0.28c0.07,0.06,0.13,0.1,0.21,0.16l62.18-108.51
						c-29.23,1.39-60.82,5.35-93.29,13.41c-0.84,0.22-1.7,0.43-2.58,0.64c-13.2,3.38-25.73,7.16-37.5,11.16
						C1359.38,245.63,1383.64,284.59,1383.64,284.59"/>
				</defs>
				<use xlink:href="#SVGID_32_"  style="overflow:visible;fill:#C6C6C5;"/>
				<clipPath id="SVGID_33_">
					<use xlink:href="#SVGID_32_"  style="overflow:visible;"/>
				</clipPath>
				<rect x="1312.49" y="176.52" class="st22" width="133.38" height="108.51"/>
			</g>
			<g class="st21">
				<defs>
					<path id="SVGID_34_" d="M1165.87,284.35l-0.46-0.8c0,0,24.73-39.75,72.55-84.19c-10.62-3.51-21.81-6.85-33.57-9.84
						c-0.84-0.21-1.7-0.42-2.56-0.64c-17.17-4.27-34.1-7.39-50.56-9.58c-16.44-2.18-32.44-3.45-47.76-4.03l62.35,109.09
						L1165.87,284.35z"/>
				</defs>
				<use xlink:href="#SVGID_34_"  style="overflow:visible;fill:#C6C6C5;"/>
				<clipPath id="SVGID_35_">
					<use xlink:href="#SVGID_34_"  style="overflow:visible;"/>
				</clipPath>
				<rect x="1103.51" y="175.28" class="st23" width="134.45" height="109.09"/>
			</g>
		</g>
	</g>
	<g class="st20">
		<g>
			<defs>
				<rect id="SVGID_36_" x="1146.22" y="231.29" width="258.07" height="54.03"/>
			</defs>
			<clipPath id="SVGID_37_">
				<use xlink:href="#SVGID_36_"  style="overflow:visible;"/>
			</clipPath>
			<g class="st24">
				<defs>
					<path id="SVGID_38_" d="M1185.56,236.81c-13.65,3.68-26.76,7.96-39.36,12.63l19.4,33.91c0,0,13.75-22.13,40.6-51.66
						c-5.94,1.35-12.01,2.81-18.15,4.42C1187.2,236.35,1186.4,236.58,1185.56,236.81"/>
				</defs>
				<use xlink:href="#SVGID_38_"  style="overflow:visible;fill:#9B9A9A;"/>
				<clipPath id="SVGID_39_">
					<use xlink:href="#SVGID_38_"  style="overflow:visible;"/>
				</clipPath>
				<rect x="1146.2" y="231.7" class="st25" width="60" height="51.66"/>
			</g>
			<g class="st24">
				<defs>
					<path id="SVGID_40_" d="M1368.97,237.78c-0.83-0.22-1.65-0.46-2.48-0.69c-6.39-1.68-12.66-3.19-18.84-4.57
						c-1.94-0.42-3.89-0.84-5.81-1.24c3.53,3.86,6.85,7.58,9.93,11.18c21.14,24.48,31.96,41.87,31.96,41.87l-0.47,0.83
						c0.06,0.05,0.12,0.1,0.19,0.16l20.84-36.38C1392.93,244.84,1381.14,241.08,1368.97,237.78"/>
				</defs>
				<use xlink:href="#SVGID_40_"  style="overflow:visible;fill:#9B9A9A;"/>
				<clipPath id="SVGID_41_">
					<use xlink:href="#SVGID_40_"  style="overflow:visible;"/>
				</clipPath>
				<rect x="1341.83" y="231.29" class="st26" width="62.46" height="54.03"/>
			</g>
		</g>
	</g>
	<path class="st0" d="M191.67,321.83c8.99,0,16.18,9.67,13.71,15.96l-9.67,28.32c-2.02,5.85-10.79,10.57-17.08,10.57H66.25
		c-11.91,0-19.11,13.26-31.92,5.39l-21.35-17.98c-6.74-4.72-6.74-15.51-1.35-20.46c9.67-9.22,27.87-20.01,44.73-20.01
		c-12.14-4.95-15.06-21.58-15.06-31.47v-39.11c0-41.13,36.41-70.13,78.67-70.13c42.03,0,78.45,29,78.45,70.13v22.93
		c0,5.39-4.5,12.59-9.67,16.18l-29.22,14.16l-0.45,0.45c-7.64,3.15-19.33-3.37-19.33-11.24v-42.48c0-12.59-9.89-21.8-19.78-21.8
		s-20.01,9.22-20.01,21.8v52.15c0,7.42,2.92,13.04,7.19,16.63H191.67z M337.52,321.83v54.85h-13.94
		c-43.83,0-77.77-53.05-77.77-92.83v-183.2c0-4.95,4.95-15.96,13.04-17.76h-0.45l26.75-9.22c8.99-3.37,19.56,4.95,19.56,12.14
		v214.44c0,12.36,8.99,21.58,18.88,21.58H337.52z M573.2,321.83v54.85h-53.05c-3.82,0-9.89-1.12-14.16-2.92l-15.73-10.57
		l-17.31,9.44c-3.82,2.25-12.14,4.05-17.53,4.05H324.36v-54.85h114.19c-27.65-7.87-55.3-30.79-55.3-44.51v-19.78
		c0-62.71,53.72-129.47,121.16-133.3c6.52,0,15.29,3.82,18.43,6.97l10.79,10.79c3.82,4.05,6.97,11.46,6.97,16.41v163.42H573.2z
		 M442.37,266.76c0,9.22,22.7,26.75,39.34,38.21V180.89c-22.7,14.16-39.34,50.13-39.34,76.65V266.76z M470.02,78.62
		c-6.29-5.62-6.29-16.41,0-21.35l22.7-23.83c3.37-2.7,7.19-2.7,10.56,0l22.48,23.83c6.29,4.94,6.29,15.73,0,21.35l-22.48,22.03
		c-3.37,2.92-7.19,2.92-10.56,0L470.02,78.62z M559.52,376.68v-54.85h78.67c1.8,0,3.15-1.12,3.15-5.17V172.35
		c0-6.07,5.62-13.71,12.81-15.96l26.97-8.99c8.32-3.37,19.11,4.5,19.11,11.91v157.35c0,31.69-28.55,60.02-62.04,60.02H559.52z
		 M674.83,474.01c-5.84,6.52-15.73,6.52-21.8,0l-16.41-15.73c-2.92-2.92-7.19-2.92-10.57,0l-16.18,15.73
		c-5.84,6.52-15.73,6.52-21.58,0l-23.38-22.25c-2.92-3.15-2.92-7.19,0-10.56l23.38-22.93c5.85-5.84,15.74-5.84,21.58,0L626.05,434
		c3.37,3.82,7.64,3.82,10.57,0l16.41-15.74c6.07-5.84,15.96-5.84,21.8,0l22.93,22.93c3.15,3.37,3.15,7.42,0,10.56L674.83,474.01z
		 M750.6,447.03c0,0-7.19-5.39-5.85-16.41c1.8-16.18,15.74-31.92,31.47-35.96c13.04-4.05,25.18,1.12,29.9,11.01
		c0.23,1.35,0,4.05-1.8,4.72l-11.91,8.77c-0.9,1.12-2.02,1.12-3.15-0.9c-1.8-4.72-7.19-7.19-13.04-5.62
		c-6.29,2.25-11.91,8.32-13.04,15.51c-2.02,9.67,4.72,14.39,4.72,14.39l37.09-9.67c2.25-0.9,3.15,0,3.15,2.02v12.14
		c0,1.57-0.9,3.6-3.15,3.82l-58.89,15.73c-1.8,0.9-3.37-0.22-3.37-2.92v-11.24c0-1.8,1.57-3.6,3.37-3.82L750.6,447.03z
		 M804.99,360.27c0,6.74-5.62,13.49-12.59,15.96l-26.75,9.44c-9.22,3.15-19.56-4.72-19.56-11.91V99.75
		c0-5.84,5.17-13.94,11.69-16.63l29.67-9.22c8.32-1.12,17.53,5.85,17.53,12.14V360.27z"/>
	<path class="st0" d="M19.36,586.38c-5.17,0-10.5-2.47-13.87-6.7C1.84,575.49,0,570,0,564.48v-6.31c0-1.02,0.86-2.23,1.8-2.82
		l4.31-2.9c1.37-0.82,3.6,0.31,3.6,1.72v10.3c0,3.56,1.1,6.82,3.06,9.05c1.8,2.27,3.8,3.29,6.07,3.29h14.89
		c0.35,0,0.55-0.2,0.55-0.9v-25.15c0-1.06,0.98-2.39,2.19-2.78l4.66-1.57c1.53-0.59,3.41,0.78,3.41,2.08v27.43
		c0,5.52-4.98,10.46-10.81,10.46H19.36z M10.77,540.03c-0.63-0.59-0.63-1.25,0-1.84l3.92-3.88c1.06-1.17,2.74-1.17,3.8,0l2.78,2.74
		c0.67,0.55,1.33,0.55,1.96,0l2.82-2.74c1.02-1.17,2.74-1.17,3.76,0l3.96,3.88c0.63,0.59,0.63,1.25,0,1.84l-3.96,3.88
		c-1.02,1.18-2.74,1.18-3.76,0l-2.82-2.74c-0.63-0.55-1.29-0.55-1.96,0l-2.78,2.74c-1.06,1.18-2.74,1.18-3.8,0L10.77,540.03z
		 M67.31,576.82v9.56h-2.43c-7.64,0-13.56-9.25-13.56-16.18v-31.93c0-0.86,0.86-2.78,2.27-3.09h-0.08l4.66-1.61
		c1.57-0.59,3.41,0.86,3.41,2.12v37.38c0,2.16,1.57,3.76,3.29,3.76H67.31z M108.36,576.82v9.56h-9.25c-0.67,0-1.72-0.2-2.47-0.51
		l-2.74-1.84l-3.02,1.65c-0.67,0.39-2.12,0.71-3.06,0.71H64.98v-9.56h19.9c-4.82-1.37-9.64-5.37-9.64-7.76v-3.45
		c0-10.93,9.36-22.57,21.12-23.23c1.14,0,2.66,0.67,3.21,1.21l1.88,1.88c0.67,0.71,1.21,2,1.21,2.86v28.48H108.36z M85.55,567.22
		c0,1.61,3.96,4.66,6.86,6.66v-21.63c-3.96,2.47-6.86,8.74-6.86,13.36V567.22z M90.37,534.43c-1.1-0.98-1.1-2.86,0-3.72l3.96-4.15
		c0.59-0.47,1.25-0.47,1.84,0l3.92,4.15c1.1,0.86,1.1,2.74,0,3.72l-3.92,3.84c-0.59,0.51-1.25,0.51-1.84,0L90.37,534.43z
		 M127.1,533.68c1.57-0.55,3.33,0.82,3.33,2.04v37.34c0,3.06-1.29,6.03-3.49,8.42c-2.59,2.86-7.13,4.9-11.32,4.9h-9.72v-9.56h9.72
		c1.96,0,4.54-1.84,4.54-3.76v-34.79c0-0.74,0.82-2.55,2.04-3.06L127.1,533.68z M153.22,576.82v9.56h-2.43
		c-7.64,0-13.56-9.25-13.56-16.18v-31.93c0-0.86,0.86-2.78,2.27-3.09h-0.08l4.66-1.61c1.57-0.59,3.41,0.86,3.41,2.12v37.38
		c0,2.16,1.57,3.76,3.29,3.76H153.22z M165.82,553.51c-0.78-0.86-1.06-2.51-0.08-3.45c2.62-2.94,6.39-5.33,10.46-6.5
		c3.96-1.25,8.03-1.25,10.38-1.06c9.36,0.86,14.58,6.7,18.49,11.24l1.65,1.76c0.55,0.2,1.41,0.51,3.45,0.71
		c1.06,0.08,1.88,0.08,2.59,0.08c1.14,0.16,2.7,1.37,2.7,2.66v4.51c0,1.02-1.57,2.63-3.06,2.43c-1.02,0-2.35-0.08-3.8-0.2
		c-0.94-0.16-1.88-0.31-2.7-0.47l-2.27,7.95c0.04,2.04,1.65,3.6,3.33,3.6h5.09v9.6h-5.09c-3.29,0-5.99-1.57-7.88-3.61
		c-1.72,1.92-4.31,3.61-7.88,3.61H150.9v-9.6h40.32c0.43,0,0.86-0.31,1.25-1.37l5.09-15.24c-3.96-4.47-6.86-7.56-11.95-8.07
		c-3.13-0.31-7.99-0.12-12.07,4.15c-0.86,0.9-2.98,0.9-3.84,0.24L165.82,553.51z M181.26,534.31c-1.1-0.86-1.1-2.74,0-3.6l3.92-4.15
		c0.55-0.47,1.29-0.47,1.8,0l3.88,4.15c1.18,0.86,1.18,2.74,0,3.6l-3.88,4.11c-0.51,0.51-1.25,0.51-1.8,0L181.26,534.31z
		 M256.95,576.82v9.56h-2.43c-2.7,0-5.13-1.14-6.82-2.86c-1.65,1.49-3.8,2.43-5.96,2.78c-0.9,0.08-2.16,0-2.9-0.12l-8.86-2.04
		c-1.76,1.41-4.27,2.23-6.78,2.23h-13.71v-9.56h13.71c0.31,0,0.55-0.2,0.55-0.9v-25.15c0-0.86,0.59-2.12,1.37-2.9l1.8-1.84
		c0.51-0.55,1.96-1.25,3.17-1.25c11.64,0.63,21.08,10.58,21.08,21.98v7.29c0.43,1.65,1.96,2.78,3.33,2.78H256.95z M240.89,566.75
		c0-4.98-2.94-9.99-6.86-12.22v21.39l-0.04,0.43l6.35,0.47c0.35,0,0.55-0.2,0.55-0.9V566.75z M284.71,576.82v9.56h-2.43
		c-3.17,0-6.27-1.65-8.46-3.88c-2.39,2.31-6.03,3.88-9.68,3.88h-9.72v-9.56h9.72c1.96,0,4.54-1.84,4.54-3.76v-34.79
		c0-0.74,0.82-2.55,2.04-3.06l4.9-1.53c1.57-0.55,3.33,0.82,3.33,2.04v37.34c0,2.16,1.57,3.76,3.33,3.76H284.71z M303.48,533.68
		c1.57-0.55,3.33,0.82,3.33,2.04v37.34c0,3.06-1.29,6.03-3.49,8.42c-2.59,2.86-7.13,4.9-11.32,4.9h-9.72v-9.56H292
		c1.96,0,4.54-1.84,4.54-3.76v-34.79c0-0.74,0.82-2.55,2.04-3.06L303.48,533.68z M375.23,586.38h-2.39c-2.94,0-5.68-1.53-7.64-3.61
		c-2.47,2.23-5.92,3.61-9.36,3.61c-7.41,0-13.71-6.35-13.71-13.32v-15.99c0-7.13,6.31-13.36,13.63-13.4
		c3.17-0.08,6.11-0.47,9.01-1.49c2.7-1.02,3.41,0.47,3.72,1.49l1.21,3.21c0.7,1.8-0.39,1.61-4.15,3.06c3.76,1.96,4,5.29,4,7.13
		v16.53c0.31,1.84,1.8,3.21,3.29,3.21h2.39V586.38z M344.32,533.45c-0.63-0.47-0.63-1.06,0-1.65l3.96-3.8c1.06-1.1,2.74-1.1,3.8,0
		l2.82,2.74c0.59,0.59,1.25,0.59,1.84,0l2.82-2.74c1.06-1.1,2.74-1.1,3.8,0l4,3.88c0.59,0.59,0.59,1.25,0,1.88l-4,3.84
		c-1.06,1.18-2.74,1.18-3.8,0l-2.82-2.74c-0.59-0.55-1.25-0.55-1.84,0l-2.82,2.74c-1.06,1.18-2.74,1.18-3.8,0L344.32,533.45z
		 M359.25,556.49c0-2.12-1.61-3.8-3.41-3.8c-1.84,0-3.45,1.68-3.45,3.8v17.12c0,2.08,1.68,3.84,3.45,3.84
		c1.72,0,3.41-1.76,3.41-3.84V556.49z M400.7,586.38c-2.7,0-5.02-1.14-6.82-2.86c-1.92,1.72-4.54,2.86-7.33,2.86h-13.71v-9.56h13.71
		c0.31,0,0.55-0.2,0.55-0.9v-25.15c0-1.06,0.98-2.39,2.23-2.78l4.7-1.57c1.45-0.59,3.33,0.78,3.33,2.08v25.55
		c0.47,1.65,1.96,2.78,3.33,2.78h2.43v9.56H400.7z M399.13,597.63c0.55,0.59,0.55,1.29,0,1.84l-3.96,3.88
		c-1.14,1.14-2.74,1.14-3.88,0l-2.78-2.74c-0.63-0.51-1.33-0.51-1.88,0l-2.78,2.74c-1.14,1.14-2.74,1.14-3.88,0l-3.96-3.88
		c-0.59-0.55-0.59-1.25,0-1.84l3.96-4c1.14-1.02,2.74-1.02,3.88,0l2.78,2.74c0.55,0.67,1.25,0.67,1.88,0l2.78-2.74
		c1.14-1.02,2.74-1.02,3.88,0L399.13,597.63z M428.56,586.38c-2.7,0-5.02-1.14-6.82-2.86c-1.92,1.72-4.54,2.86-7.33,2.86h-13.71
		v-9.56h13.71c0.31,0,0.55-0.2,0.55-0.9v-25.15c0-1.06,0.98-2.39,2.23-2.78l4.7-1.57c1.45-0.59,3.33,0.78,3.33,2.08v25.55
		c0.47,1.65,1.96,2.78,3.33,2.78h2.43v9.56H428.56z M415.28,536.7c-1.1-1.02-1.1-2.9,0-3.76l3.92-4.11c0.55-0.51,1.25-0.51,1.88,0
		l3.84,4.11c1.14,0.86,1.14,2.74,0,3.76l-3.84,3.92c-0.63,0.39-1.33,0.39-1.88,0L415.28,536.7z M453.1,552.37
		c3.57-5.88,10.74-10.97,17.16-10.97c4.78,0,9.36,1.88,12.34,4.9c3.17,3.29,4.78,7.72,4.78,12.46v14.3
		c0,7.13-6.23,13.32-13.71,13.32h-17.12c-3.45,0-6.74-1.33-9.17-3.33c-2.31,2-5.64,3.33-9.09,3.33h-9.72v-9.56h9.72
		c1.96,0,4.54-1.84,4.54-3.76v-35.11c0-0.94,0.98-2.47,2.35-2.78l4.82-1.57c1.49-0.16,3.1,1.02,3.1,2.31V552.37z M477.11,558.76
		c0-4.94-2.66-7.8-6.86-7.8c-9.01,0-17.16,12.11-17.16,14.65v7.44c0,2.16,1.65,3.76,3.45,3.76h17.12c1.84,0,3.45-1.61,3.45-3.76
		V558.76z M527.28,576.82v9.56h-5.76c-0.43,5.17-2.86,9.64-7.01,12.89c-3.57,2.43-8.54,4.07-14.03,4.23c-1.53,0-2.9-1.29-2.9-2.47
		v-4.51c0-0.98,1.18-2.43,2.78-2.55c3.33-0.2,5.92-0.94,7.88-2.43c1.68-1.33,2.59-2.94,3.02-5.17h-6.27
		c-5.84,0-10.81-4.94-10.81-10.46v-9.17c0-11.52,9.6-21.43,21.47-21.98c1.1,0,2.16,0.63,2.66,1.06l2.23,2.23
		c0.59,0.63,1.06,1.57,1.06,2.39v26.37H527.28z M511.3,555.08c-3.96,2.04-6.86,6.7-6.86,11.68v9.17c0,0.7,0.2,0.9,0.55,0.9h6.31
		V555.08z M546.09,533.68c1.57-0.55,3.33,0.82,3.33,2.04v37.34c0,3.06-1.29,6.03-3.49,8.42c-2.59,2.86-7.13,4.9-11.32,4.9h-9.72
		v-9.56h9.72c1.96,0,4.54-1.84,4.54-3.76v-34.79c0-0.74,0.82-2.55,2.04-3.06L546.09,533.68z M567.63,583.52
		c0,1.18-0.98,2.35-2.19,2.78l-4.66,1.65c-1.61,0.55-3.41-0.82-3.41-2.08v-47.76c0-1.02,0.9-2.43,2.04-2.9l5.17-1.61
		c1.45-0.2,3.06,1.02,3.06,2.12V583.52z M634.97,586.38h-2.39c-2.94,0-5.68-1.53-7.64-3.61c-2.47,2.23-5.92,3.61-9.36,3.61
		c-7.4,0-13.71-6.35-13.71-13.32v-15.99c0-7.13,6.31-13.36,13.63-13.4c3.17-0.08,6.11-0.47,9.01-1.49c2.7-1.02,3.41,0.47,3.72,1.49
		l1.21,3.21c0.71,1.8-0.39,1.61-4.15,3.06c3.76,1.96,4,5.29,4,7.13v16.53c0.31,1.84,1.8,3.21,3.29,3.21h2.39V586.38z M604.06,533.45
		c-0.63-0.47-0.63-1.06,0-1.65l3.96-3.8c1.06-1.1,2.74-1.1,3.8,0l2.82,2.74c0.59,0.59,1.25,0.59,1.84,0l2.82-2.74
		c1.06-1.1,2.74-1.1,3.8,0l4,3.88c0.59,0.59,0.59,1.25,0,1.88l-4,3.84c-1.06,1.18-2.74,1.18-3.8,0l-2.82-2.74
		c-0.59-0.55-1.25-0.55-1.84,0l-2.82,2.74c-1.06,1.18-2.74,1.18-3.8,0L604.06,533.45z M618.99,556.49c0-2.12-1.61-3.8-3.41-3.8
		c-1.84,0-3.45,1.68-3.45,3.8v17.12c0,2.08,1.68,3.84,3.45,3.84c1.72,0,3.41-1.76,3.41-3.84V556.49z M697.23,576.78v9.6h-2.39
		c-3.1,0-5.84-1.57-7.76-3.61c-2.35,2.12-5.84,3.61-9.4,3.61h-17.12c-3.45,0-6.74-1.37-9.17-3.41c-2.31,2.08-5.64,3.41-9.09,3.41
		h-9.72v-9.56h9.72c1.96,0,4.54-1.84,4.54-3.76v-23.31c0-0.98,0.98-2.47,2.35-2.78l3.41-1.14l0.31-0.08
		c1.41-0.23,3.09,1.02,3.09,2.27v5.6c4.82-7.68,11.4-12.22,18.26-12.22c4.78,0,9.36,1.88,12.34,4.9c3.17,3.29,4.78,7.72,4.78,12.46
		v14.3c0,2.16,1.65,3.76,3.45,3.72H697.23z M681.13,558.76c0-5.02-2.66-7.8-6.86-7.8c-9.01,0-17.16,11.99-17.16,14.57v7.48
		c0,2.12,1.65,3.76,3.45,3.76h17.12c1.84,0,3.45-1.65,3.45-3.76V558.76z M722.57,586.38c-2.7,0-5.02-1.14-6.82-2.86
		c-1.92,1.72-4.54,2.86-7.33,2.86h-13.71v-9.56h13.71c0.31,0,0.55-0.2,0.55-0.9v-25.15c0-1.06,0.98-2.39,2.23-2.78l4.7-1.57
		c1.45-0.59,3.33,0.78,3.33,2.08v25.55c0.47,1.65,1.96,2.78,3.33,2.78H725v9.56H722.57z M709.29,536.7c-1.1-1.02-1.1-2.9,0-3.76
		l3.92-4.11c0.55-0.51,1.25-0.51,1.88,0l3.84,4.11c1.14,0.86,1.14,2.74,0,3.76l-3.84,3.92c-0.63,0.39-1.33,0.39-1.88,0L709.29,536.7
		z M770.02,576.82v9.56h-2.43c-2.7,0-5.13-1.14-6.82-2.86c-1.65,1.49-3.8,2.43-5.96,2.78c-0.9,0.08-2.15,0-2.9-0.12l-8.85-2.04
		c-1.76,1.41-4.27,2.23-6.78,2.23h-13.71v-9.56h13.71c0.31,0,0.55-0.2,0.55-0.9v-25.15c0-0.86,0.59-2.12,1.37-2.9l1.8-1.84
		c0.51-0.55,1.96-1.25,3.17-1.25c11.64,0.63,21.08,10.58,21.08,21.98v7.29c0.43,1.65,1.96,2.78,3.33,2.78H770.02z M753.96,566.75
		c0-4.98-2.94-9.99-6.86-12.22v21.39l-0.04,0.43l6.35,0.47c0.35,0,0.55-0.2,0.55-0.9V566.75z M788.69,533.68
		c1.57-0.55,3.33,0.82,3.33,2.04v37.34c0,3.06-1.29,6.03-3.49,8.42c-2.59,2.86-7.13,4.9-11.32,4.9h-9.72v-9.56h9.72
		c1.96,0,4.54-1.84,4.54-3.76v-34.79c0-0.74,0.82-2.55,2.04-3.06L788.69,533.68z M810.23,583.52c0,1.18-0.98,2.35-2.19,2.78
		l-4.66,1.65c-1.61,0.55-3.41-0.82-3.41-2.08v-47.76c0-1.02,0.9-2.43,2.04-2.9l5.17-1.61c1.45-0.2,3.06,1.02,3.06,2.12V583.52z"/>
</g>
</svg>
